<?xml version="1.0" encoding="UTF-8"?>
<svg id="_图层_2" data-name="图层 2" xmlns="http://www.w3.org/2000/svg" viewBox="0 0 730.03 839.91">
  <defs>
    <style>
      .cls-1 {
        fill: #472293;
      }

      .cls-2 {
        fill: #311377;
      }

      .cls-3 {
        fill: #2a0f73;
      }

      .cls-4 {
        fill: #3d4cc0;
      }

      .cls-5 {
        fill: #2b1b7e;
      }

      .cls-6 {
        fill: #1d1043;
      }

      .cls-7 {
        fill: #431e8e;
      }

      .cls-8 {
        fill: #5a3bbd;
      }

      .cls-9 {
        fill: #4c279e;
      }

      .cls-10 {
        fill: #200860;
      }

      .cls-11 {
        fill: #5c3ec3;
      }

      .cls-12 {
        fill: #5029a4;
      }

      .cls-13 {
        fill: #552faf;
      }

      .cls-14 {
        fill: #2c2387;
      }

      .cls-15 {
        fill: #341678;
      }

      .cls-16 {
        fill: #522ea9;
      }

      .cls-17 {
        fill: #312e93;
      }

      .cls-18 {
        fill: #5e48d0;
      }

      .cls-19 {
        fill: #5d40c8;
      }

      .cls-20 {
        fill: #3439a2;
      }

      .cls-21 {
        fill: #241d5c;
      }

      .cls-22 {
        fill: #3b1983;
      }

      .cls-23 {
        fill: #1e0759;
      }

      .cls-24 {
        fill: #3641ad;
      }

      .cls-25 {
        fill: #1f075b;
      }

      .cls-26 {
        fill: #240b65;
      }

      .cls-27 {
        fill: #5a34b7;
      }

      .cls-28 {
        fill: #220a5e;
      }
    </style>
  </defs>
  <g id="_图层_1-2" data-name="图层 1">
    <path class="cls-23" d="M4.31,249.67l.16,1.3c-1.98,1.32,4.07,8.09,5.97,9.42-2.3,6.78-2.22,8.37-2.43,15.49-.16,5.37-2.32,15.44-2.36,18.24l-.19,11.56.35,17.41c.04,1.85.58,4.74.93,6.36,1.46.3,3.46.8,3.71,1.73.47,1.72,2.66,4.45,2.76,5.98.44,6.74.1,8.46-2.86,15.64-1.16,2.8-3.6,4.13-.83,7.69.96,1.23-.42,4.23-.75,6.13-1.93,11.22-3.48-.42-2.33,13.9.25,3.18.66,5.44-.62,8.64l2.43,9.65c.07.27-.55,1.55-.71,1.77s.83.51,1,.29l1.13-1.4c1.12-.11,1.94,2.46,1.79,4.15-.11,1.2-1.62,2.05-3.51,3.36l4.12.84c.38.18.4,2.6-.2,2.89l-3.32,1.6c-1.58.76,0,3.34.54,5.04,1.82,5.74,1.55,11.51,2.5,12.12,3.58,2.31,8.45-3.51,8.25-3.36,2.37-1.83,4.19-3.2,5.75-5.63l1.07-1.67c.31-.48,2.13,1.13,2.1,1.7l-.38,6.62c-.07,1.22-3.69,1.38-4.72,2.01-1.51.93-2.99,5.24-4.86,5.32l-7.02.33-1.32,6.19c-2.82,2.51-.23,4.51.24,6.8l1.64,7.97c.47,2.25.16,5.52.97,7.58,1.2,3.06,2.4,6.3.62,9.2-4.19,6.79,4.41,4.51-1.04,15.22l1.09,8.01c.43,3.16,4.35,4.45,6.98,5.86l1.99,7.34c.75,2.78.13,5.23,3.74,6.74l-1.46,9.07c-1.21.98-2.93,2.6-2.7,3.66s1.88,3.55,2.94,3.33c12.23-3.04,15.05,2.16,23.76-2.82l1.65-12.74c.52-4.02-.55-9.18.49-12.71.85-2.89,2.28-3.94.35-6.94-1.53-2.37-1.08-6.31-.07-9.35l-3.81-4.53c-.51-.6-.89-2.7-.74-3.46.61-3.24,4.1,1.39,5.9-7.32,1.16-.5,3.6-1.15,4.66-1.77s1.4-4.24.32-4.83c-.77-.42-3.18-.55-4.02-.3-.98.29-1.21,2.38-1.55,3.73l-.43,1.72c-.12.48-1.44.16-2.02-.09l-7.14-3.16c1.83-9.25,5.12-6.45,5.38-8.17.81-5.31-1.36-4.03.28-6.88.37-.64,2.04-1.31,2.63-.88,2.22,1.63,1.25,2.83,1.71,8.03.1,1.08,3.23.87,4.17.35,2.75-1.52,1.01-5.4,1.38-13.05.18-3.67.16-7.4.69-10.86.31-1.99.55-3.67.67-5.56l.58-9.16c.14-2.15,2.1-5.88,1.71-7.82-.72-3.64-.78-5.85.41-9.22.56-1.59,1.03-3.16,2.08-3.81l-.07,134.07-.19,9.93c-.19,9.88.63,19.59-.18,29.41-.46,5.53-5.87,19.22,5.99,25.93l5.64,3.19,4.19,2.49c2.79,1.66,5.1,3.79,8.34,4.42,4.34.85,5.91,4.81,6.94,8.57,3.05.85,6.58,1.7,9.02,3.22,8.63,5.38,4.47-1.04,14.48,4.84,4.66,2.73,9.17,5.22,14.01,7.67,3.24,1.64,5.84,4.3,8.81,6,9.29,5.31-1.83.44,12.13,10.28l5.45,3.85c2.15,1.52,4.69,2.15,6.21,4.44l7.15.45c1.86,1.03,4.13,2.37,6.27,2.55,3.2.27,4.66,2.42,6.96,3.72,1.99,1.12,5.43,1.57,7.82,4,1.55,1.58,3.57,2.54,5.3,3.81l3.86,2.83c8.23,6.03,8.28,2.2,10.63,7.44l.9-.94c1.47-1.53,14.91,7.99,20.99,9.34.45.1,1.32.45,1.72.68.1.45.76,1.38,1.22,1.7l4.54,3.14,13.02,7.96c1.28.79,3.41,2.28,4.4,3.08,3.23,4.77,8.92,6.4,13.21,7.88l10,3.44.35,2.96c-1.52.53-3.28-.07-5.09-.23l-7.39-.64c-1.78-.15-5.51.77-7.17,1.59-9.95,4.94-6.69-.14-17.87,5.48l-3.84,4.48c-1.72-2.22-3.01-3.77-4.79-3.4-5.91,1.23-3.41,6.49-5.35,8.88-1.17,1.43-4.84,1.35-6.12,2.3l-5,3.74,1.62,4.87c-1.87-.9-3.05-1.73-5.11-1.18l4.54,2.35,6.76,5.14c.64.48,1.67,2.26,2.18,1.74.98-1.01,1.91-1.99,2.61-2.19,3.56-1.03,4.74,4.59,8.87,5.38l10.31,1.98,9.89,9.44c3.76.47,8.36-.16,12.21-.2,1.91-.02,6.55,1.89,6.58,3.74l.14,8.13,14.85,10.06c-.44.71-2.12,1.26-3.32,1.4-3.31-1.09-6.53-2.76-9.74-4.65l-8.68-5.12-26.21-14.98c-.5-.29-.29-3.41-.78-3.23-4.08,1.53-8.65-2.73-12.1-4.39l-4.31-2.07-12.21-7.29-19.12-11.41c-3.63-2.17-6.87-4.14-10.69-6.01-4.74-2.31-9.21-5.14-13.77-7.89l-10.6-6.39c-11.63-7.02-23.84-12.47-35.01-19.9-2-1.33-3.02-2.69-5.61-3.66-5.31-1.98-10.14-5.69-15.23-8.48l-7.21-3.96-21.11-11.75c-5.15-2.87-10.11-5.86-15.15-8.86l-3.89-2.31c-2.52-3.07-4.66-7.67-7.61-10.15l-8.38-7.04c-1.62-1.36-18.77-2.81-19.36-1.38-.27-.16-.79-.42-.96-.65-.2-.26-.59-.69-.76-.95-3.01-2.97-8.39-5.11-12.14-7.74-.96-2.13-2.22-5.57-3.44-6.87-1.98-.52-4.88-1.04-5.88-2.39l-.43-17.99-.18-7.57c-.12-5.12-.12-9.89.13-14.94.12-2.4-.16-12.73-.8-12.75l-1.11-.04v-3.75c3-1.85,2.48-7.47,0-9.74v-2.25c2.47,1.66,1.51-7.46,1.1-7.47l-1.1-.03v-6c.85.32,1.75-.99,1.65-1.89-.06-.56-.98-1.04-1.65-1.11v-15.74c.04.31,1.51-.53,1.51-1.13v-21.18c0-.76-.09-1.65-.37-1.65l-1.14-.03v-6l1.5-.44v-40.34s-1.5-.44-1.5-.44v-12.74l1.54-.32c.28-.06-.16-1.17-.44-1.17H.76v-10.5l1.1-.03c.28,0,.42-1.05.42-1.42v-6.84c0-.37-.14-1.41-.42-1.42l-1.1-.03v-8.24c.02.26,1.51-.56,1.51-1.09v-16.73c-.01-.73-.1-1.64-.38-1.64l-1.14-.03v-1.5l1.1-.03c.28,0,.42-1.05.42-1.39v-5.41c0-.33-.14-1.38-.42-1.39l-1.1-.03v-47.97l1.54-.32c.28-.06-.16-1.17-.44-1.17H.76v-17.24c.88.28,1.71-.97,1.65-1.9-.04-.54-.97-1.04-1.65-1.1v-6.75c.91.13,1.67-.87,1.68-1.88s-.77-2-1.68-1.87v-2.25l1.1-.03c.28,0,.42-1.05.42-1.39v-5.41c0-.33-.14-1.38-.42-1.39l-1.1-.03v-3.75c.15.08,1.51-.38,1.51-.75l.04-5.28c0-.38-.16-1.43-.44-1.44l-1.1-.03v-1.5c.13.3,1.42-.48,1.43-1.11l.29-27.6,1.83.35Z"/>
    <path class="cls-28" d="M74.99,258.4l7.41,5.31,16.19,10.25,21.61,13.72,81.83,48.27c1.65.97,3.37,1.56,4.79,2.03l.08.62-7.23,14.59c-5.42,10.92-12.65,34.85-13.65,47.12l-.91,11.13c-.5,6.17-1.14,12.39-1.39,18.59l-4.32.27c-.13,2.24.3,3.8,1.8,5.43l2.39-2.62c.41.49,1.44,9.55,1.65,11.34l.82,6.79c.26,2.15.06,5.3.57,7.32-1.47.29-2.02.8-4.25,2.32l.21-3.88c-.03-.28-1.87-1.04-2.28-.63l-1.72,1.72c-2.86,2.86-6.91,2.13-10.54,3.15-4.34,1.22-12.83,7.2-15.28,3.2-.87-1.43-.59-4.26-.3-6.05.52-3.19.73-5.1,4.56-5.52,1.05-.12,13.48-4.88,14.92-7.78l-7.63-1.77,1.98-2.24c.98-1.11,1.62-3.06,1.21-4.22-.69-1.95-2.7-1.59-5.51-1.41l.94-5.08c.15-.8-.4-2.58-1.1-2.88-2.96-1.28-6.03,5.66-9.95.79,3.04-.92,4.19-3.52,3.49-6.59l-.95-4.13c-.1-.43-2.19-.25-2.22.2-.77,9.85-14.35,4.63-11.77,7.47l1.69,1.86c1.04,1.15.47,4.45-.68,6-2.59,3.46-7.68,3.36-8,2.9l-1.78-2.68c-2.24,3.72-3.81,7.18-6.56,10.39-1.7,1.99-6.55.32-8.18-1.16-6.32-5.74-.41-10.05-5.07-11.01l.48-4.55c2.01.99,3.13-7.42,4.61-8.76.73-1.31,5.3-1.3,5.74.09l1.55,4.88c.19.59,2.7-1.02,2.47-1.59l-1.26-3.01c-.17-.41-.48-1.7-.55-2.15-.1-.59,1.42-1.66,1.9-1.3l2.34,1.73,3.14-4.12c-2.35-1.38-3.48-2.56-3.29-5.3.06-.86-1.87-1.9-2.46-2.5l-4.84-4.93c3.92-2.51,7.24-3.97,11.44-4.95l8.56-2c1.57-.37,4.31,1.99,5.57,3.11l2.35-.97c.33-.14.87-1.13,1.04-1.47.21-.42-1.14-.59-1.78-.62.03-1.3-.12-2.94-.45-4.4,4.78-.9,6.65-4.69,8.61-8.42s7.73-12.49,4.58-16.26l1.07-6.48c-3.8-4.54-7.93-8.13-12.15-11.88-3.41-3.03-6.31-6.11-10.25-8.49l-7.56-4.56-13.33-8.78-12.41-7.01c-1.02-.57-13.96-7.07-14.1-5.93-1.46-.86-3.91-2.73-5.17-3.7-.44-.34-1.16-1.18-1.57-1.61-1.17-3.77-3.7-7.46-6.62-10.25l-3.59-6.17-11.51.03-8.26,4.34-5.49,3.04c-.02-.37-1.84-2.47-2.61-2.15-3.2,1.36-7.83,1.74-11.18,2.17l-8.72,1.12c-1.25.16-3.49.95-3.88,1.95s.3,3.48.21,4.59c-.16,1.82-.93,4.29-.56,5.59.48,1.66.88,3.13.49,4.13-1.16,3-5.91.24-9.13,1.21-.85-3.77-1.56-8.87-3.44-12.33-1.73-3.18-4.43-7.67.14-10.22,1.19-.66,2.39-1.46,3.47-2.86l3.97-1.55,1.03,2.05c.25.51,1.42-.11,1.73-.58s.04-2.16-.17-2.6c-3.09.22-6.24-.16-8.19-3.23l1.61-5.97c-5.38-15,6.18-18.63,3.41-25.08-2.56.36-4.54.37-6.9-.18l-7.47-1.73-.16-1.3-.45-5.41c-.43-5.13.09-10.22,3.59-14.2,6.62-7.53,8.27,4.92,15.04-1.44l-.82-3.75c4.3,3.11,8.72,6.02,13.52,8.99l25.43,15.77c4.97,3.08,9.91,5.56,14.38,8.77ZM178.15,429.58c.81-2.57-3.33-8.78-6.72-8.55-.6.04-1.38,1.29-1.44,1.9l-.8,8.04c-.37,3.67,1.45,6.75,5.63,6.73-1.26-3.91,2.34-4.94,3.33-8.11Z"/>
    <path class="cls-25" d="M186.63,458.57l3.22,12.78c1.13,4.48,2.01,8.59,3.42,12.94,1.09,3.36,3.23,6.37,4.53,9.61,8.96,22.25,20.94,39.65,37.57,56.91,14.7,15.26,24.71,20.65,41.34,30.61l8.25,4.94c2.3,1.38,4.62,1.91,6.9,3.07l6.57,3.36c1.8.92,3.54,5.63,6.26,4.82l3.38-1.01-2.29,7.31-4.99,12.64c-2.36,5.97-1.62,9.46-2.09,9.54l-1.63.28-5.44,4.04c-2.82,2.1-5.77,10.55-13.96,14.65l-9.33,4.68c-3.4,1.7-5.54-2.63-8.05-3.09l-11.54-2.08c-2.99-.54-5.96-.96-8.87-1-1.72-1.24-5.28-2.02-6.67-3.63-2.57-2.98-6.06-5.81-9.24-8.68-2.88-7.01-2.51-14.47-2.42-21.9.05-4.74,1.95-7.38,3.92-10.93,1.06-1.9,1.81-3.41,3.55-5.43,1.25-1.7-1.32-5.83-3.02-7.3-4.02-3.47-7.36-7.07-10.98-10.75-2.91-2.95-6.24-5.6-7.56-9.93-.42-1.38-3.26-2.13-4.53-1.82l-8.59,2.08c-2.5.61-4.49,1.61-6.75,2.78-9.89,5.13-4.2,3.15-19.71,5.16-1.57.2-4.87-.5-6.64-.75l-6.09-7.42c-2.64-3.21-4.57-7.02-6.77-10.71-2.31-3.89-3.89-8.03-5.81-12.04-2.55-5.32-5.06-11.21-4.51-17.1,8.44-2.06,1.36-4.34,11.2-8.03,3.2-4.27,5.85-9.09,8.81-13.67,1.21-1.88,2.13-4.12,3.01-6.23.44-1.06,2.49-2.59,2.42-3.71-.07-.98-1.61-2.98-1.77-4l-2.32-14.71c-1.14-7.25-8.06-10.16-14.06-11.56l-7.2-1.67c-2.47-.57-3.5-1.71-4.2-4.35-1.55-.74-4.67-2.14-6.42-2.4-4.7-.31-9.91.25-13.57-2.9-2.36-6.53-2.81-13.72-2.09-20.41,4.66.96-1.25,5.27,5.07,11.01,1.63,1.48,6.47,3.15,8.18,1.16,2.74-3.21,4.32-6.66,6.56-10.39l1.78,2.68c.31.47,5.41.56,8-2.9,1.16-1.55,1.73-4.85.68-6l-1.69-1.86c-2.58-2.84,11,2.38,11.77-7.47.04-.45,2.13-.63,2.22-.2l.95,4.13c.71,3.08-.45,5.68-3.49,6.59,3.92,4.87,6.99-2.06,9.95-.79.7.3,1.25,2.08,1.1,2.88l-.94,5.08c2.81-.18,4.82-.54,5.51,1.41.41,1.16-.22,3.11-1.21,4.22l-1.98,2.24,7.63,1.77c-1.43,2.9-13.87,7.67-14.92,7.78-3.83.42-4.04,2.33-4.56,5.52-.29,1.79-.57,4.62.3,6.05,2.45,4,10.94-1.98,15.28-3.2,3.63-1.02,7.68-.29,10.54-3.15l1.72-1.72c.41-.41,2.25.36,2.28.63l-.21,3.88c2.23-1.52,2.78-2.03,4.25-2.32Z"/>
    <path class="cls-18" d="M631.32,155.85c1.25.66,2.93,1.74,4.21,2.31.53.61,1.85,2,2.61,2.4l11.1,5.79,21.79,12.45c3.86,2.2,7.52,4.45,11.75,6.43,8.67,4.07,9.65,6.07,17.55,10.49l5.02,2.81,7.42,4.04c2.28,1.24,4.47,3.29,6.78,4.26,1.92,3.15,8.84,4.27,8.87,8.24l-1.28-1.64c-.4-.51-1.95,1.18-2.57,1.53l-11.24,6.37c-7.39,4.18-7.9,5.32-14.73,9.37l-12.24,7.26-24.35,13.99-19.96,11.4c-8.69,4.96-17.18,9.53-25.21,14.8l-5.87,2.07c-5.1-4.06-4.41,1.31-8.13-6.86-1.31-2.87-3.14-6.01-4.72-8.55-1.8-.26-4.48-.66-4.91-1.81-.51-1.34-.06-3.5.4-5.51l-3.09-2.1c5.13-2.69,9.89-6.36,15.28-9.5l17.51-10.19c3.35-1.95,6.12-3.83,9.36-6.74l-8.49-5.4c-7.09-4.51-14.28-8.31-20.98-12.78l8.54-6.55c.69-.53,3.11-1.06,3.17-1.86l.19-2.72c.27-3.94,4.51-.71-4.15-11.68-.45-.57-1.09-2.59-.54-3.06.44-.37,1.24-.93,1.96-1.42l1.95-1.32c.46-.31.05-2.3-.03-2.22l-5.08.83c-1.23.2-1.09-3.42-.54-4.56,2.16-4.5-3.03-11.95-6.91-15.08.78-1.73,3.23-4.47,4.97-6.35,5.5-5.95,7.21-1.67,10.9-5.58,4.37.27,9.29,6.17,13.72,6.64Z"/>
    <path class="cls-5" d="M634.79,681.25c-.21.01-.55,0-.7.07-.7.39-1.64,1.04-2.24,1.58-3.98,3.52-8.81,6.01-13.66,8.85l-16.03,9.39-31.04,17.59-13.81,8.04c-4.95,2.88-9.82,5.36-14.55,8.6-6.56,4.49-14.87,7.61-21.8,11.88-2.44-1.6-5.3-2.74-8.27-3.79.23-1.02.74-2.91.49-3.71s-2.1-1.65-2.55-2.39l-4.96-8.19c1.7.02,5.57.61,5.91-.78.42-1.71.9-4.65,1.13-6.32-5.4-4.48-8.17-9.27-12.26-12.23l-1.49-3.56-6.32-2.22c-.48-3.42,1.47-5.99,4.89-6.72l8.22-1.76c1.79-5.68,6.38-8.1,5.41-12l14.13-7.64,8.34-4.62c1.24-.68,2.7-2.45,3.1-3.53.1-.25.44-.71.68-.84.18.15.98.62,1.23.73,11.39-6.85,7.5-2.48,18.43-9.7,5.13-3.39,9.98-6.49,15.24-9.49l12.34-7.03c0,.38,0,2.38.54,2.75l3.88,2.69c4.12.03,8.05-.13,11.94.13s5.34,4.83,6.81,7.5,4.64,4.6,7.26,6.13l6.75,4.57c1.56,1.06,3.06,3.33,5.07,4.53,3.75,2.23.56,5.53,5,6.19,1.21.18,3.12.69,3.3,1.51.22.96-.06,2.81-.39,3.8Z"/>
    <path class="cls-3" d="M399.36,560.5c3.01-.13,6.38.31,9.58,1.01.39,3.92,1.91,5.93,4.59,8.26,6.6,5.77,6.48.91,14.26,7.98,5.25,12.43,5.61,6.03,9.65,13.87,7.77,4,16.38-.03,19.67,3.59-5.29,3.49-10.82,6.81-16.55,10.24l-15,8.99c-1.91,1.14-3.16,1.74-5.03,3.36-2.15,1.87-7.1,4.03-9.43,5.71-6.3,4.51-15.8,21.24-15.87,30.22l-.34,43.23c-3.07.08-7.36,2.1-8.39,5.56-1.66,5.59-.87,11.68.7,17.12l3.66,1.84c1.49.75,2.76,1.39,4.05,1.86,0,5.67.46,11.42-.57,16.97-1.17.03-1.67-1.86-2.3-3.21-1.89-1.21-5.54.67-7.59,1.7l-6.05-.35c-10.07-.59-9.58-7.76-13.18-7.08l-.19-52.33-.13-12.65.04-45.1-.04-30.8c0-3.43-4.87-5.22-7.38-4.17.97-.96,1.72-3.45,2.97-4.62l.85-.8,17.98-9.82,1.36,1.38c.36.37,1.74-.42,2.21-.71l7.05-4.4c1.67-3.65,5.36-6.69,9.44-6.86Z"/>
    <path class="cls-7" d="M288.6,47.04c.64,1,.43,2.43-.45,3.29-6.27,6.1-.96,4.7-10.64,12.32,1.72,3.38-.79,5.63-1.28,7.94-.95,4.44-1.37,7.99-6.59,9.59-7.52,2.31-2.43,7.56-18.59,10.38-1.86.32-3.12,1.89-3.07,3.76.2,6.73.05,13.44,3.12,19.5,2.1,4.14,5.81,8.26,9.95,10.48,3.41,1.82,11.18-.78,11.05,1.71l-25.82,15.31-24.49,14.18c-4.48,2.59-12.54,7.53-17.04,9.37-.28.11-.66.58-.87.81l-1.47.11c-1.84-1.67-4.64-.32-7.18.13-4.46.79-8.17,2.64-10.98,6.35-5.97.85-8.53,5.75-13.38,4.64-3.35-.77,4.62-5.39,4.27-10.23,5.42-6.1-2.63-8.72,3.42-13.78l1.04-4.77c1.56-.55,3.83-1.51,3.94-2.65.22-2.31,1.23-3.29,2.17-4.83,2.65-4.37,4.53-9.18,6.71-13.84-2.7-5.95.1-13.41,6.43-14.84,5.27-1.19,10.19-2.99,13.78-7.19l-.3-6.87,4.08-4.54c1.84-2.04,2.94-4.61,3.21-7.16l26.48-15.5c6.6-3.86,19.07-10.49,24.51-15.27.2-.17.55-.59.77-.72.26.35.68.73,1,.58-5.1,2.41,22.64-12.3,16.21-8.26Z"/>
    <path class="cls-19" d="M577.18,125.28l10.25,4.88c2.19,1.69,4.57,3.58,7.35,5.04l13.14,6.94c2.7,1.43,5.39,3.5,8.19,4.71.53.72,1.07,1.58,1.5,2.36-3.68,3.91-5.4-.37-10.9,5.58-1.74,1.88-4.19,4.62-4.97,6.35,3.88,3.13,9.06,10.58,6.91,15.08-.55,1.14-.69,4.76.54,4.56l5.08-.83c.08-.08.48,1.91.03,2.22l-1.95,1.32c-.72.49-1.53,1.04-1.96,1.42-.54.47.09,2.49.54,3.06,8.66,10.97,4.42,7.74,4.15,11.68l-.19,2.72c-.06.8-2.47,1.33-3.17,1.86l-8.54,6.55c-2.3-.92-4.98-2.27-7.43-3.72l-12.74-7.56-32.95-19.68c2.06-10.2-1.03-2.76-2.12-15.01-.36-3.98-5.96-.1-13.33-4.69-7.04-4.39-3.12.48-13.51-5.64l2.43-7.94c.85-2.79,2.66-6.72,4.59-8.95,1.09-1.08,4.76.07,6.23.16l3.49-4.14c1.52-1.8,2.64-2.76,4.9-4.23,2.39-1.54,3.87-6.47,6.98-7.42l5.85-1.05,3.72.33c10.98.96,6.55.18,13.5,6.12.63.54,2.99.98,3.5.34.43-.53.74-1.61.9-2.38Z"/>
    <path class="cls-5" d="M506.68,592.28c-23.95-5.05-16.62-16.15-32.27-5.74-2.23,1.48-4.08,2.41-5.36,3.97l-1.27.86c-8.44.96-4.97,2.76-10.67,3.84-3.29-3.62-11.9.41-19.67-3.59-4.05-7.84-4.4-1.44-9.65-13.87-7.78-7.07-7.66-2.22-14.26-7.98-2.67-2.34-4.19-4.34-4.59-8.26-3.19-.7-6.56-1.14-9.58-1.01,1.81-2.34,4.74-4.3,7.7-5.93l18.33-10.11,9.19-5.6,12.81-6.79c2.03.89,3.7,1.94,5.82,3.52,3.95,2.94,4.32-1.14,12.46,8.36l1.43,6.51,5.05.35c4.12,2.67,7.78,4.6,12.39,6.68l5.02,6.13c0,4.16,2.03,5.77,5.31,7.32l6.64,3.15c2.49,1.18,8.07,4.43,9.89,6.72s4.02,12.68,1.54,11.94l-3.01-.89-2.12-.63c-.43-.13-.99.67-1.14,1.06Z"/>
    <path class="cls-8" d="M526.19,95.8c3.34.59,5.58,2.44,9.17,4.67,4.07,2.52,12.03,7.1,16.32,8.92l.65.27c6.04,4.51,12.81,8.33,19.56,11.7l3,1.5,2.29,2.41c-.16.78-.47,1.85-.9,2.38-.51.64-2.87.2-3.5-.34-6.96-5.94-2.52-5.16-13.5-6.12l-3.72-.33-5.85,1.05c-3.11.94-4.59,5.87-6.98,7.42-2.27,1.46-3.38,2.42-4.9,4.23l-3.49,4.14c-1.47-.09-5.14-1.24-6.23-.16-1.92,2.23-3.73,6.16-4.59,8.95l-2.43,7.94c10.39,6.13,6.46,1.26,13.51,5.64,7.37,4.59,12.98.71,13.33,4.69,1.1,12.25,4.19,4.81,2.12,15.01l-15.74-8.88-17.03-9.54c-.48-.27-2.18-.44-2.22-.41-2.18-1.71-4.15-3.62-6.92-5.1-4.49-2.39-8.88-5.26-12.58-8.09,1.34-7.47-.51-16.08-4.45-23.59l-1.76-3.35c-.36-.68-2.75-.22-4.15-.14l-1.04-7.97c-3.44-2.41-3.35-5.38-2.62-9.04.56-2.8.08-7.04.85-9.64l3.49-6.43c.83-1.53,2.47-3.68,3.72-5.43,1.53-1.59,6.6-.13,8.42,1.25l9.44,7.13c2.58,1.95,4.35,4.37,8.07,3.12l6.33,3.54c.72.4,2.35,1.07,3.04.86s1.09-1.54,1.29-2.3Z"/>
    <path class="cls-13" d="M442.22,45.48l.75.06c.37.7,1.42,1.9,2.29,2.42l38.25,23.04c-.53,3.07-.5,1.47-8.08-.18-3.4-.74-6.33-.78-10.01-.34l-4.84-4.39-7.97-.34c-2.18-.09-4.32.84-6.38,1.79-1.56.72-4.76.98-5.39,3.11-1.97,6.66,8.34,8.99,2.78,13.19-2.39,1.81-1.63,3.56-1.68,6.13-.05,2.2-.24,4.99-.44,7.58-.38,4.85-12.29,2.97-10.35,9.93l1.15,4.13-14.04-8.33c-2.08-12.51-12.57-5.67-20.29-14.05-6.37-2.14-8.84-8.7-15.09-6.8l-1.63-.87c-.63-1.98-1.83-4.54-2.88-6.72,5.59-6.91,6.28-17.48,16.56-18.95l4.96-7.62.68-5,4.11-3.62c8.3-7.32,15.22,1.69,18.84-3.73,5.65,1.86,11.75,7.5,18.69,9.55Z"/>
    <path class="cls-5" d="M395.68,441.47c-.59,1.66-.25,3.68.7,5.19v1.5l-.67,1.09c-.13.21.39.3.68.41v11.24c-.33.28-.32.45,0,.75v3c-.95,1.6-.95,4.4,0,6v5.25c-.41.3-.41.45,0,.75v3.75c-.9,1.34-.91,3.91,0,5.25l-.02,3.64c.08-.4-1.38.74-1.38,1.29l.03,21.15c-.61,4.07-.79,7.24-.72,10.76l-17.62,11.01c-3.94,2.46-7.62,4.78-11.68,6.29-.22-.7-1.2-3.08-1.29-4.11l-.19-30.3.26-80.32c2.94.3.87,7.35,3.26,7.27,5.74.68,10.04,2.68,12.08,7.58,5.06,2.58,11.22,1.52,16.57,1.58Z"/>
    <path class="cls-27" d="M492.51,348.58c-10.12,5.5-20.24,11.28-30.14,17.29-4.57-3.47-2.03-6.52-6.28-8.82-4.71-2.55-9.21-5.14-12.58-9.5-1.44-1.87,2.16-4.03,3.46-4.92,5.79-3.94,11.17-5.47,17.92-7.52,2.15-.65,7.95-5.64,4.78-9.55l.37-1.05.92-.82,1.14-.83c-2.12-2.56-4.25-5.33-6.59-7.3.52-3-.62-5.01-3.06-6.79l-8.29-6.04-2.27-5.96c-2.44.39-4.69.91-6.18.11-1.21-.65-2.93-3.24-2.72-4.13l5.56-3.85c3.34-2.31,10.66-7.83,10.73-11.98l-3.51-6.04c2.21,1.3,5.36,2.36,7.52,3.98,6.28,4.73,13.19,8.18,18.5,13.84l5.03,5.36c1.97,2.1,3.89,2.8,6.83,3.31,2.31,1.7,9.15,10.07,4.73,13.87-1.58,1.35-4.92,1.71-7.57,2.2l1.43,3.15c-1.22,1.04-4.18,3.24-4.02,4.71.19,1.64,1.7,4.47.93,5.76-3.88,6.54.29,6.87.95,17.17.37,1.19,2.36,3.21,2.39,4.33Z"/>
    <path class="cls-26" d="M696.72,494.04l.22,31.88-.7.08-22.08.12c-.66.47-1.33,1.23-1.21,1.37h-2.1c.7-2.43-3.33-.33-4.78-2.16-.38-.48-1.01-1.96-1.01-2.63l-.17-26.81-.16-49.08c4.42.92.13,4.98,4,10.71l4.39,6.5c.99,1.47,5.82.73,6.65,2.83s1.49,4.91,2.97,6.14c2.3,1.91,4.59.33,7.16-1.45,4.75,4.91.79,21.15,6.84,22.49Z"/>
    <path class="cls-9" d="M332.01,369.37c-1.39,4.05-7.86-.75-16.45,4-13.79,7.62-5.43,6.68-10.17,14.27,2.02,2.62,5.59,2.48,8.62.81l6.88,2.11c2.71.83,6.97,4.31,8.4,6.86s2.18,5.5,2.76,7.91l-33.45-18.16-31.76-17.74c-.77-.43-1.44-2.14-1.66-3.02-.04-.17-.05-.54,0-.69.42-.02,1.46-.01,1.48-.44l.07-1.23.07-.53c2.7-2.09,4.51-5.3,6.97-8.12,2.68-3.08,9.37-10.31,12.98-11.54l18.9,9.88,10.83,6.33,15.54,9.29Z"/>
    <path class="cls-6" d="M148.41,388.77l-8.09,1.52-20.34,5.39c-2.07.55-5.62,2.03-6.25,3.76-.19.53-.46,1.53-.63,2.12-.3.87-.67,2.24-.67,3.13v2.25c-1.14,3.71-.88,8.14-.54,12.17.22,2.54.72,5.4.45,7.9l-.48,4.55c-.71,6.69-.26,13.87,2.09,20.41,3.65,3.15,8.86,2.59,13.57,2.9,1.75.26,4.87,1.66,6.42,2.4.7,2.64,1.73,3.78,4.2,4.35l7.2,1.67c6,1.39,12.92,4.31,14.06,11.56l2.32,14.71c.16,1.02,1.71,3.02,1.77,4,.07,1.12-1.98,2.65-2.42,3.71-.88,2.11-1.79,4.35-3.01,6.23-2.96,4.59-5.61,9.41-8.81,13.67-9.85,3.69-2.76,5.97-11.2,8.03-.55,5.89,1.96,11.77,4.51,17.1,1.92,4.01,3.5,8.14,5.81,12.04,2.19,3.69,4.13,7.5,6.77,10.71l6.09,7.42c1.77.25,5.07.95,6.64.75,15.51-2.01,9.82-.03,19.71-5.16,2.25-1.17,4.25-2.17,6.75-2.78l8.59-2.08c1.27-.31,4.11.43,4.53,1.82,1.32,4.33,4.65,6.98,7.56,9.93,3.62,3.68,6.97,7.28,10.98,10.75,1.7,1.47,4.27,5.6,3.02,7.3-1.74,2.01-2.49,3.52-3.55,5.43-1.98,3.54-3.87,6.18-3.92,10.93-.08,7.43-.45,14.89,2.42,21.9,3.18,2.87,6.67,5.7,9.24,8.68-.94-.36-2.62-1.04-3.51-1.67l-15.11-10.65,10.67-39.91c-7.5-6.67-13.92-13.25-20.53-20.57l-23.98,6.77-17.7,5.39c-12.13-16.94-22.69-34.47-31.41-53.91l29.23-30.46c-3.57-9.7-6.02-17.99-8.34-27.77l-40.54-10.05-1.4-17.6c-.86-10.84-.55-33.35,2.12-43.94l40.8-10.09c1.57-9.93,4.26-18.1,7.52-27.55-6.49-7.34-13.5-13.79-21.5-19.45l-46.66-27.51c.14-1.14,13.08,5.36,14.1,5.93l12.41,7.01,13.33,8.78,7.56,4.56c3.94,2.38,6.84,5.46,10.25,8.49,4.22,3.75,8.35,7.34,12.15,11.88l-1.07,6.48c3.15,3.76-2.7,12.68-4.58,16.26s-3.82,7.53-8.61,8.42Z"/>
    <path class="cls-6" d="M86.13,305.64c.41.44,1.12,1.27,1.57,1.61-.86.07-2.21-.2-3.11-.69l-18.58-9.95-.08,297.39,76.91,44.15,42.36,24.34,46.33,26.44c1.37.78,2.72,1.91,3.6,2.78-6.08-1.36-19.52-10.87-20.99-9.34l-.9.94c-2.35-5.24-2.4-1.41-10.63-7.44l-3.86-2.83c-1.73-1.27-3.74-2.23-5.3-3.81-2.39-2.43-5.83-2.88-7.82-4-2.3-1.29-3.76-3.44-6.96-3.72-2.13-.18-4.41-1.53-6.27-2.55l-7.15-.45c-1.52-2.29-4.06-2.92-6.21-4.44l-5.45-3.85c-13.96-9.84-2.84-4.97-12.13-10.28-2.97-1.7-5.57-4.36-8.81-6-4.85-2.45-9.35-4.93-14.01-7.67-10.01-5.88-5.85.54-14.48-4.84-2.44-1.52-5.97-2.38-9.02-3.22-1.03-3.76-2.6-7.73-6.94-8.57-3.24-.63-5.56-2.77-8.34-4.42l-4.19-2.49-5.64-3.19c-11.87-6.71-6.45-20.4-5.99-25.93.82-9.83,0-19.53.18-29.41l.19-9.93.07-134.07v-56.96c0-8.25,1.12-16.7.75-22.49-.24-3.74-.69-7.77-1.32-11.71s-1.49-11.72,2.17-13.9c2.15-1.28,3.2.48,5.33,1.37,1.64.68,4.94.76,6.01,2.11,2.63,3.31,5.29,5.52,8.73,7.03ZM99.73,616.69l-2.64-2.34c-.39-.35-1.45,1.08-1.9,1.96l4.54.39Z"/>
    <path class="cls-6" d="M293.12,795.4c4.66,3.74,9.89,6.73,15.78,9.63,2.09,1.03,4.26,2.87,6.37,4.07l23.33,13.34,8.07,4.6c7.3,4.16,10.79.87,11.1,7.65l7.32,3.52,6.91-3.66c1.17-2.51,2.7-5.16,4.69-6.36l3.86.71c3.78-2.56,7.58-4.75,11.34-6.69s7.43-4.44,11.57-6.62l12.76-6.69c1.97-1.03,6.41-5.08,12.67-8.49l8.65-4.7,10.94-6.84c-11.02,6.89,30.05-16.24,17.79-10.03,14-7.09,20.5-12.38,32.85-18.84,7.65-4,14.77-8.39,21.85-12.75s15.24-7.39,21.8-11.88c4.73-3.24,9.6-5.72,14.55-8.6l13.81-8.04,31.04-17.59,16.03-9.39c4.85-2.84,9.68-5.33,13.66-8.85.82-.28,1.72-.9,2.24-1.58.15-.08.48-.06.7-.07,5.09-2.07,9.78-4.61,14.69-8.11,1.67-1.2,4.98-1.98,7.12-2.61l.85.29-46.91,27.33-96.46,55.61-83.42,48.4-65.63,37.76-56.02-32.25-53.1-30.97-106.48-61.26-84.72-48.6-38.38-22.35c.59-1.43,17.74.02,19.36,1.38l8.38,7.04c2.95,2.48,5.09,7.08,7.61,10.15l3.89,2.31c5.04,3,10,6,15.15,8.86l21.11,11.75,7.21,3.96c5.09,2.79,9.92,6.5,15.23,8.48,2.6.97,3.62,2.33,5.61,3.66,11.18,7.43,23.38,12.89,35.01,19.9l10.6,6.39c4.56,2.75,9.03,5.57,13.77,7.89,3.82,1.86,7.06,3.84,10.69,6.01l19.12,11.41,12.21,7.29,4.31,2.07c3.44,1.66,8.02,5.92,12.1,4.39.5-.19.28,2.94.78,3.23l26.21,14.98,8.68,5.12c3.2,1.89,6.43,3.56,9.74,4.65Z"/>
    <path class="cls-21" d="M270.6,55.44c-5.44,4.78-17.91,11.41-24.51,15.27l-26.48,15.5-12.14,7.02-24.27,14.19-9.03,5.19-16.93,9.96-20.74,12.21c-4.15,2.45-8.72,4.5-12.97,7.37-1.71,1.15-3.38,2-5.21,3.06l-36.02,20.89-13.26,7.77-12.33,7.14c-6.7,3.88-13.15,7.69-19.78,11.65l-8.92,5.32-14.71,8.71c-3.17,1.88-7.44,3.02-9.59,6.09.2-.19-1.93.55-1.84.94l1.7,7.4c-1.59,3.84-1,8.66-1.02,12.63l-.09,15.58-.29,27.6c0,.63-1.3,1.41-1.43,1.11v-64.4s-.68-.83-.68-.83l9.72-5.81,33.42-19.8,49.37-28.59,50.65-29.54,40.85-23.66,80.39-46.85c2.27-1.32,4.09-2.36,6.14-3.09Z"/>
    <path class="cls-21" d="M542.2,473.58l-.02-.7,24.91-15.23c.47-.29,1.25-1.17,1.46-1.61s-.59-1.9-1.12-2.27c-8.32-5.94-19.38-9.37-29.72-10.47-8.94-.95-27.37.39-34.91,3.4-12.38,4.93-26.67,14.58-34.62,25.73-4.29,10.22-8.22,8.52-11.48,21.03-2.42,9.33-3.44,18.53-3.88,28.14-.13,2.83-.16,6.99-1.67,8.87-1.48.6-2.94,1.16-3.77,1.6l-12.81,6.79-9.19,5.6-18.33,10.11c-2.96,1.63-5.89,3.6-7.7,5.93-4.08.17-7.78,3.2-9.44,6.86l-7.05,4.4c-.47.29-1.85,1.08-2.21.71l-1.36-1.38,2.24-2.93c.17-.22.52-.61.72-.83.24.74.35.6.7-.14l68.25-40.1c-1.23-23.76,4.01-42.72,19.49-60.04,26.54-29.68,70.79-34.42,102.82-11.08l-31.31,17.61Z"/>
    <path class="cls-21" d="M469.05,590.51c1.28-1.57,3.12-2.49,5.36-3.97,15.65-10.4,8.32.69,32.27,5.74,7.15,1.51,14.47,3.78,22.31,3.19,19.6-1.45,22.51-2.64,38.89-11.82,5.39-3.02,9.64-7.21,14.06-11.54,2.42-2.37,4.38-5.18,6.52-7.77,3.91-4.74,6.94-9.31,9.09-15.14l4.58-12.38c.03-.07,3.74-21.66,1.02-23.56l-12.53,7.47-15.2,8.82-18.3,11.03-10.53,5.91c-1.28.72-4.37,1.34-5.66.65l-8.76-4.66-2.51,2.41-4-5.8c-1.27-1.85-4.69-3.37-6.88-4.02l-.87-.84c-.18-.19-.49-.52-.69-.65-3.34-2.06-5.75-1.4-5.89-5.09l32.02,18.2,61.92-35.99c2.78,29.8-11.32,58.22-36.47,74.49-26.49,17.13-60.57,15.61-86.12-2.08-4.78,3.08-9.07,5.72-13.64,7.41Z"/>
    <path class="cls-6" d="M216.46,435.42c-.21.14-.84.79-.64,1.1s.77,1.24.77,1.24c3.45,61.25,50.94,115.18,111.74,131.05-15.34,17.49-25.17,38.47-27.47,61.44l-3.9-1.33-6.9,7.44-20.5,22.85c-10.33-4.7-20.85-9.23-29.69-15.64,2.9.04,5.88.46,8.87,1l11.54,2.08c2.51.45,4.65,4.79,8.05,3.09l9.33-4.68c8.19-4.11,11.14-12.56,13.96-14.65l5.44-4.04,1.63-.28c.47-.08-.26-3.57,2.09-9.54l4.99-12.64,2.29-7.31c1.49-4.76,3.96-9.24,5.47-14.28,1.38-4.59,3.1-2.18,9.74-9.41,3.43-3.74-3.3-4.35-10.03-7.13l-11.77-4.86c-1.92-.8-4.62-1.73-6.33-2.32-2.51-3.07-5.88-5.31-9.7-5.96l-17.94-13.08c-1.67-1.22-4.52-3.08-5.73-4.43l-6.1-6.82c-2.31-2.58-5.02-5.08-7.19-7.81-6.5-8.2-12.06-16.94-17.41-25.95l-5.65-9.52-2.13-7.29c-6.62-22.68-8.8-26.78-8.79-51.96,0-2.74,1.08-5.91.53-8.33l1.04-.02c-.65,5.93.03,12.05.37,18.01Z"/>
    <path class="cls-21" d="M646.63,297.31l-200.87,116.67-48.18,27.7c-1.47.84-1.6,3.64-1.2,4.99-.96-1.51-1.29-3.53-.7-5.19,1.6-1.23,3.52-2.27,5.56-3.46l23.17-13.54,37.38-22.02,41.47-23.42,25.25-14.54c2.17-1.25,4.5-2.07,5.87-3.76,8.84-4.26,17.06-9.67,25.82-14.69l21.42-12.26c3.06-1.75,6.23-3.09,8.34-5.48,3.16-1.06,6.17-2.86,9.35-4.71l18.45-10.75,25.23-15.08c.62-.18,1.79-.51,2.32-.83l1.33.39Z"/>
    <path class="cls-21" d="M703.23,301.86l-4.91,3.04c-.64.39-1.69,1.58-2.09,2.14-10.51,4.08-20.45,12.29-31.53,17.77-1.47,13.4-.4,26.9-.28,40.14l.39,42.15-.1,39.71.16,49.08.17,26.81c0,.67.63,2.15,1.01,2.63,1.45,1.83,5.48-.28,4.78,2.15l-7.52-.04-.66-.64.03-173.67v-28.79s40.59-23.17,40.59-23.17l-.06.68Z"/>
    <path class="cls-6" d="M364.99,539.76c4.06-1.51,7.75-3.83,11.68-6.29l17.62-11.01,1.54.57c-19.44,14.69-45.56,23.98-64.44,42.3l-.03-121.62-33.79-19.01-30.24-17.23.06-.69c4.17,1.48,7.86,3.91,12.07,6.33,2.72,1.57,6.73,2.38,9.34,4.13,3.02,2.02,5.73,4.3,8.76,6.02l4.94,2.8,16.85,8.51,9.42,6.29c3.53,2.36,4.97,5.23,4.97,9.57v15.19c0,5.94-.19,11.67.14,17.59.39,7.1.23,14.01.17,21.18l-.13,16.47.05,28.7c0,2.83.36,5.96,1.02,8.8,2.87.71,4.61-3.77,9.82-8.01l6.29-5.12c2.51-2.05,4.49-2.59,7.74-1.87l6.15-3.61Z"/>
    <path class="cls-25" d="M682.89,586.91l.65-.03c4.21,1.23,21.08.72,25.4,0,.45-.07,1.25-.47,1.7-.67-4.84,11.56-7.89,23.24-14.08,34.12-5.18-11.78-10.12-22.42-13.67-33.43Z"/>
    <path class="cls-6" d="M360.46,581.71c-1.24,1.17-2,3.66-2.97,4.62l-7.71,7.65-1.8,6.43c-4.64.5-11.44,14.46-11.92,18.07l-1.8,13.34c-.81,6.02-.21,12.21-.16,17.96l.12,15.74v7.5s-.02,2.25-.02,2.25v59.96c.01,3.86.4,7.65-.84,11.23l-1.82.02.17-107.82c.04-22.89,10.91-43.84,28.74-56.94Z"/>
    <path class="cls-21" d="M657.45,670.82l-.85-.29c.21-1.39,1.92-1.51,3.25-2.3l16.99-10.14-11.53-28.13-10.82-24.5c-1.41-.27-3.14-.71-4.94-1.25l-15.58,8.69-5.72,3.32c-9.75,5.66-19.04,11.35-29.06,16.56-5.18,2.7-9.76,5.96-14.54,8.68l-12.34,7.03c-5.26,3-10.11,6.1-15.24,9.49-10.92,7.22-7.03,2.85-18.43,9.7-.25-.11-1.05-.58-1.23-.73,17.29-9.87,50.95-29.38,68.46-39.45l47.99-27.59,4.84,11.68,21.01,47.02-22.25,12.22Z"/>
    <path class="cls-6" d="M467.78,591.37l-48.68,29.11c-16.01,9.57-22.52,24.35-22.53,42.85l-.05,85.02,26.87-15.39,46.02-26.7,57.35-33.22c3.47-2.01,6.64-3.74,9.97-5.24-.41,1.09-1.87,2.85-3.1,3.53l-8.34,4.62-14.13,7.64c-3.71,2.01-7.25,4.23-11.05,6.62l-11.13,7-11.72,6.22-10.99,6.31c-7.65,4.39-15.01,8.82-22.41,13.62-5.69,3.69-4.99,2.58-11.21,6.78l-4.44,3c-2.77,1.87-5.05,2.97-8.13,4.21-5.4,2.16-10.35,5.66-15.38,8.18l-5.47,2.74c-.58.29-2.18.49-2.68.22s-1.09-1.4-1.19-1.98l-1.03-6.16c1.03-5.55.57-11.3.57-16.97l-.02-26.39.34-43.23c.07-8.99,9.58-25.71,15.87-30.22,2.33-1.67,7.28-3.84,9.43-5.71,1.87-1.62,3.12-2.22,5.03-3.36l15-8.99c5.73-3.43,11.26-6.75,16.55-10.24,5.7-1.08,2.23-2.88,10.67-3.84Z"/>
    <path class="cls-21" d="M369.67,276.43c6.29.05,12.42,1.21,18.58,2.52l6.81,1.45-.58.66c-17.94-5.16-36.78-3.57-55.67-.26-23.94,4.18-45.57,13.55-64.56,28.56-35.03,27.68-53.38,64.46-58.14,108.06l-1.04.02c-.44-1.96-.79-4.1-.38-6.32l3.26-17.94c.23-1.28,1.25-3.58,1.61-4.81,1.09-3.69,2.39-7.58,4-11.32l8.6-19.99c1.65-3.84,4.22-7.39,6.27-10.78,1.06-1.76,3.36-3.04,3-5.26,3.19-3.1,5.4-7.34,8.62-10.91,4.13-4.58,8.5-8.84,13-12.96l8.13-7.44c2.32-2.12,6.03-3.3,7.6-6.12,11.47-7.11,30.13-18.19,43.47-20.93l16.38-3.36c8.08-1.66,22.92-2.93,31.06-2.86Z"/>
    <path class="cls-15" d="M442.22,45.48c-6.94-2.06-13.04-7.69-18.69-9.55-1.34-1.08-2.97-2.02-4.75-3.07l-8.4-4.97c-9.66-5.71-18.81-11.75-28.7-16.11-4.66-2.93-9.99-6.79-15.46-9.55-1.15-.58-3.88.77-4.93,1.38l-14.82,8.48-14.68,8.9-21.14,12.22-22.06,13.84c6.43-4.03-21.31,10.67-16.21,8.26-.32.15-.75-.23-1-.58l35.91-21.07L365.02,0l47.9,27.81c10.15,5.89,19.88,11.46,29.3,17.67Z"/>
    <path class="cls-6" d="M.76,278.02v348.54c0,1.3.4,2.9.75,3.82C.93,630.2,0,628.99,0,627.84L.08,212.79l.68.83v64.4Z"/>
    <path class="cls-9" d="M710.64,586.22c-.45.2-1.25.59-1.7.67.29-1.99,1.17-3.62,2.22-5.62,4.26-8.11,7.41-16.52,10.89-25.03,1.18-2.89,1.93-5.74,2.3-8.94l.23-1.99c.06-.51-1.5-1.28-2.07-1.28l-55.9-.06c3.81,14.84,12.58,28.89,16.92,42.91l-.65.03-19.26-44.63,65.4.02-18.4,43.92Z"/>
    <path class="cls-7" d="M730.03,377.7v149.62s-33.73.29-33.73.29l-.06-1.61.7-.08c7.68-.88,22.76.96,31.48-2.16.2-21.05-3.66-63.13-.08-84.02l.86-5.04c.95-5.52.07-10.87-.14-16.36l-.67-17.55c-.12-3.17.12-6.79.4-10.26.85-10.6-.25-2.89-.25-12.82h1.5Z"/>
    <path class="cls-23" d="M265.17,366.41c.22.88.89,2.59,1.66,3.02.4,7.18-5.13,5.73-5.63,16.04-.77,15.98.25,5.51,1.54,17.47,1.35,1,3.68,2.58,4.65,3.87l-.06.69c-5.31-3.03-10.99-5.5-16.22-9.3,3.11-11.73,6.98-22.93,14.06-31.77Z"/>
    <path class="cls-23" d="M299.86,730.51c2.25.6,4.02,2.15,6.29,3.52l10.65,6.42,4.81,2.91c2.19,1.33,5,2.1,7.41,2.23l2.53.88,1.82-.02c-.77,2.22-2.21,3.64-5.28,3.78l-7.18.32c-3.64.16-7.16.3-10.55-1.05l.05-3.98c.09-7.53-7.79-1.05-8.86-6.56-1.05-5.37-3.78-7.39-3.18-7.69l1.49-.76Z"/>
    <path class="cls-17" d="M646.63,297.31l-1.33-.39,25.86-15.5,20.41-11.84c12.46-7.23,25.14-13.92,37.08-21.87l-.25-32.65c-.03-3.97-6.95-5.09-8.87-8.24,3.57,1.49,6.89,3.57,10.48,5.89l-.05,36.49-40.02,23.09-18.03,10.62-25.29,14.41Z"/>
    <path class="cls-5" d="M542.19,472.88l.02.7-30.18,18.79c-.03,8.91-.25,25.27-.8,33.71-.83.02-.78,1.63.08,1.54l.03.87c.14,3.69,2.54,3.02,5.89,5.09-2.25.46-1.33.59.69.65l.87.84-.51,1.74-8.23-3.52c-.46-.19-1.66-.51-1.9-.14l-1.21,1.92c-2.44-2.08.89-5.04,2.2-8.2l.77-26.27c.08-2.8.57-6.58,1.02-9.03l5.75-5.31c4.07-.26,7-4.04,10.11-5.67l7.6-3.96c2.42-1.26,5.42-2.29,7.78-3.73Z"/>
    <path class="cls-21" d="M24.61,642.88l-.06.7-23.04-13.2c-.35-.91-.76-2.51-.76-3.82v-53.98s1.12.04,1.12.04c.64.02.92,10.36.8,12.75-.25,5.05-.26,9.82-.13,14.94l.18,7.57.43,17.99c1,1.36,3.9,1.87,5.88,2.39,1.23,1.3,2.49,4.75,3.44,6.87,3.75,2.63,9.13,4.77,12.14,7.74Z"/>
    <path class="cls-6" d="M284.87,720.06c-.47-.13-1.21-.33-1.62-.48l-10-3.44c-4.29-1.48-9.98-3.11-13.21-7.88-.99-.8-3.12-2.29-4.4-3.08l-13.02-7.96-4.54-3.14c-.46-.32-1.11-1.25-1.22-1.7l45.87,25.91c1.42.8,2.07,1.49,2.15,1.76Z"/>
    <path class="cls-22" d="M469.69,325.57l-29.93,17.41-15.95,9.38-13.27,7.68-6.56,4.08c-9.63,5.99-20.21,10.82-29.78,16.93-2.42,1.54-5.84,2.39-8.16,4.15-1.05.8-3.24.57-4.5-.11l-10.94-5.92-18.57-9.8-15.54-9.29-10.83-6.33-18.9-9.88c-3.61,1.23-10.3,8.46-12.98,11.54-2.46,2.82-4.27,6.03-6.97,8.12,4.88-8.15,11.81-14.85,18.57-21.92l13.99,7.56,51.65,29.06c4.37,2.46,8.32,4.26,12.66,7.26l89.9-51.64c5.8-3.33,10.94-6.56,16.49-9.32l-.37,1.05Z"/>
    <path class="cls-17" d="M730.03,368.71h-1.5l-.02-81.02c-9.16,4.41-16.65,11.02-25.28,14.16l.06-.68,26.57-15.55.16,83.08Z"/>
    <path class="cls-7" d="M465.53,315.56c2.35,1.97,4.48,4.74,6.59,7.3l-1.14.83c-20.67-23.24-41.19-32.48-70.42-40.89l-6.09-1.75.58-.66c4.37.93,9.11,1.53,13.7,2.95,23.67,7.32,38.49,16.86,56.78,32.21Z"/>
    <path class="cls-6" d="M329.03,745.59c-2.41-.13-5.22-.9-7.41-2.23l-4.81-2.91-10.65-6.42c-2.27-1.37-4.05-2.91-6.29-3.52-1.92-.52-2.94-1.69-4.47-2.79l-5.1-3.67.08-.92,36.64,20.67c.74.42,1.77,1.48,2.02,1.8Z"/>
    <path class="cls-22" d="M551.68,109.39c-4.29-1.82-12.25-6.4-16.32-8.92-3.59-2.22-5.83-4.08-9.17-4.67-5.27-4.35-11.52-7.74-17.9-11.23l-24.78-13.56-38.25-23.04c-.87-.53-1.91-1.73-2.29-2.42l108.71,63.85Z"/>
    <path class="cls-21" d="M396.37,489.27c-.07,11.25.38,22.61-.53,33.77l-1.54-.57c-.08-3.52.11-6.69.72-10.76l-.03-21.15c0-.55,1.46-1.69,1.38-1.29Z"/>
    <path class="cls-21" d="M696.24,526l.06,1.61-23.35-.11c-.12-.14.56-.89,1.21-1.37l22.08-.12Z"/>
    <path class="cls-22" d="M571.88,121.37c-6.76-3.38-13.52-7.2-19.56-11.7,1.52.65,19.82,10.32,19.56,11.7Z"/>
    <path class="cls-6" d="M381.54,568.16l-2.24,2.93-17.98,9.82c3.14-2.96,15.7-10.84,20.22-12.75Z"/>
    <path class="cls-9" d="M649.23,166.35l-11.1-5.79c-.75-.39-2.08-1.79-2.61-2.4,2.41,1.08,12.92,6.33,13.71,8.19Z"/>
    <path class="cls-21" d="M284.87,720.06c1.96.55,3.78,2.09,5.5,3.06l-.08.92-6.69-1.5-.35-2.96c.42.14,1.15.34,1.62.48Z"/>
    <path class="cls-1" d="M631.32,155.85c-4.43-.47-9.35-6.37-13.72-6.64-.42-.77-.97-1.63-1.5-2.36,2.01.86,3.9,1.73,6.12,3.03l7.87,4.62c.4.24,1.23,1.26,1.22,1.34Z"/>
    <rect class="cls-7" x="728.53" y="368.71" width="1.5" height="6.75"/>
    <path class="cls-1" d="M607.91,142.15l-13.14-6.94c-2.78-1.47-5.16-3.35-7.35-5.04,5.84,2.78,15.73,7.94,20.49,11.98Z"/>
    <path class="cls-7" d="M587.42,130.16l-10.25-4.88-2.29-2.41c1.03-.87,11.42,6.43,12.54,7.29Z"/>
    <path class="cls-21" d="M396.4,470.64c-.95-1.6-.95-4.4,0-6v6Z"/>
    <path class="cls-21" d="M396.39,485.63c-.91-1.34-.9-3.91,0-5.25v5.25Z"/>
    <rect class="cls-17" x="728.53" y="375.46" width="1.5" height="2.25"/>
    <path class="cls-22" d="M266.73,364.05l-.07,1.23c-.02.43-1.06.42-1.48.44l.54-1.54c.08-.24.73-.17,1-.13Z"/>
    <path class="cls-21" d="M216.6,437.76s-.57-.92-.77-1.24.43-.96.64-1.1l.13,2.34Z"/>
    <path class="cls-21" d="M396.39,449.66c-.29-.11-.81-.21-.68-.41l.67-1.09v1.5Z"/>
    <path class="cls-21" d="M511.31,527.61c-.86.1-.91-1.51-.08-1.54-.02.38.07,1.14.08,1.54Z"/>
    <path class="cls-6" d="M25.37,643.83l-.83-.25.06-.7c.17.26.56.69.76.95Z"/>
    <path class="cls-6" d="M382.26,567.33l.7-.14c-.36.74-.47.88-.7.14Z"/>
    <path class="cls-21" d="M396.39,461.65c-.32-.3-.33-.47,0-.75v.75Z"/>
    <path class="cls-21" d="M396.39,476.64c-.4-.3-.4-.45,0-.75v.75Z"/>
    <path class="cls-7" d="M663.32,527.44l-.66-.64.66.64Z"/>
    <path class="cls-10" d="M364.89,666.4l.13,12.65.19,52.33c.03,7.04-.15,14.42-.74,21.78-.24,3-1.2,5.2.14,8.18,1.06,2.37.12,5.22.17,7.67s.41,4.91.19,7.41c-.5,5.7-.43,10.97-.3,16.59l.13,6.01c.2,9.19.49,18.12,6.85,24.88.73.48,3.41.66,4.45.31,3.54-1.2,8.33-1.93,11.53-2.34.78-.1,2.5-.97,3.14-1.1.51-.11.95.9,1.11,1.44-3.76,1.94-7.56,4.14-11.34,6.69l-3.86-.71c-1.98,1.2-3.52,3.85-4.69,6.36l-6.91,3.66-7.32-3.52c-.31-6.78-3.81-3.5-11.1-7.65l-8.07-4.6-23.33-13.34c-2.11-1.21-4.27-3.04-6.37-4.07-5.89-2.9-11.12-5.89-15.78-9.63,1.2-.15,2.88-.69,3.32-1.4l-14.85-10.06-.14-8.13c-.03-1.85-4.67-3.76-6.58-3.74-3.86.04-8.45.67-12.21.2l-9.89-9.44-10.31-1.98c-4.13-.79-5.31-6.41-8.87-5.38-.7.2-1.63,1.18-2.61,2.19-.51.52-1.54-1.25-2.18-1.74l-6.76-5.14-4.54-2.35c2.06-.55,3.23.27,5.11,1.18l-1.62-4.87,5-3.74c1.28-.95,4.95-.87,6.12-2.3,1.94-2.39-.56-7.64,5.35-8.88,1.77-.37,3.07,1.19,4.79,3.4l3.84-4.48c11.17-5.63,7.92-.54,17.87-5.48,1.66-.82,5.39-1.74,7.17-1.59l7.39.64c1.81.16,3.57.76,5.09.23l6.69,1.5,5.1,3.67c1.54,1.11,2.55,2.28,4.47,2.79l-1.49.76c-.6.3,2.13,2.32,3.18,7.69,1.08,5.51,8.95-.97,8.86,6.56l-.05,3.98c3.38,1.35,6.91,1.22,10.55,1.05l7.18-.32c3.07-.14,4.52-1.56,5.28-3.78,1.24-3.59.86-7.37.86-11.23-.72,5.76,3.35-14.93,2.51-8.21,1.33-10.52,3.07-31.07,1.16-40.35-.71-3.44-2.49-6.38-2.26-9.89.04-.59.09-1.49-.2-1.49l-1.21-.02v-2.25c.12.11,1.62-.39,1.61-.8l-.08-6.48-1.52-.22-.12-15.74c1.1-.13,2.21-1.47,2.48-2.71l1.7-7.63-.78-5.14c2.35,2,1.95,4.01,2.53,6.21l3.04,11.71,6.57,5.83c-.93,6.28,9.28,5.54,9.49,5.39.73-.52,1.55-1.68,2.49-2.7.89,2.7,1.46,5.04,3.25,5.66Z"/>
    <path class="cls-25" d="M79.52,295.39c-2.69-2.56-6.55-1.87-9.87-2.31s-5.65-1.16-8.94.76c-2.38,1.39-4.5,2.34-4.17,6.17.81,9.4,5.38,11.96,6.51,18.53.2,1.18,1.11,2.13,2.17,2.2.37,5.79-.75,14.24-.75,22.49l-1.15.04c-.41.01-.53,1.46-.32,1.82s.96.35,1.47.39v3.75l-1.12.04c-.28,0-.25.92-.27,1.4l-.49,9.5c-.12,2.43-.14,4.64.4,7.08l-.03,12.8c0,.32.13,1.36.41,1.37l1.1.03v18.74c-1.05.65-1.52,2.23-2.08,3.81-1.19,3.37-1.13,5.58-.41,9.22.39,1.94-1.58,5.67-1.71,7.82l-.58,9.16c-.12,1.89-.36,3.57-.67,5.56-.53,3.46-.51,7.19-.69,10.86-.38,7.65,1.37,11.53-1.38,13.05-.94.52-4.08.73-4.17-.35-.46-5.19.51-6.4-1.71-8.03-.59-.43-2.27.24-2.63.88-1.63,2.85.53,1.57-.28,6.88-.26,1.72-3.55-1.08-5.38,8.17l7.14,3.16c.58.25,1.9.58,2.02.09l.43-1.72c.34-1.35.58-3.44,1.55-3.73.84-.25,3.25-.12,4.02.3,1.07.59.74,4.21-.32,4.83s-3.49,1.27-4.66,1.77c-1.8,8.71-5.29,4.08-5.9,7.32-.14.76.24,2.85.74,3.46l3.81,4.53c-1.01,3.04-1.46,6.98.07,9.35,1.93,3,.5,4.04-.35,6.94-1.04,3.53.03,8.69-.49,12.71l-1.65,12.74c-8.71,4.99-11.53-.21-23.76,2.82-1.06.21-2.69-2.23-2.94-3.33s1.49-2.68,2.7-3.66l1.46-9.07c-3.61-1.51-2.99-3.95-3.74-6.74l-1.99-7.34c-2.63-1.41-6.55-2.7-6.98-5.86l-1.09-8.01c5.45-10.71-3.15-8.43,1.04-15.22,1.79-2.9.59-6.14-.62-9.2-.81-2.06-.5-5.33-.97-7.58l-1.64-7.97c-.47-2.29-3.06-4.29-.24-6.8l1.32-6.19,7.02-.33c1.87-.09,3.36-4.4,4.86-5.32,1.03-.64,4.65-.79,4.72-2.01l.38-6.62c.03-.57-1.79-2.18-2.1-1.7l-1.07,1.67c-1.56,2.42-3.38,3.79-5.75,5.63.2-.16-4.67,5.67-8.25,3.36-.95-.61-.67-6.38-2.5-12.12-.54-1.7-2.12-4.28-.54-5.04l3.32-1.6c.6-.29.58-2.71.2-2.89l-4.12-.84c1.89-1.31,3.4-2.16,3.51-3.36.16-1.69-.66-4.26-1.79-4.15l-1.13,1.4c-.17.21-1.16-.07-1-.29s.78-1.51.71-1.77l-2.43-9.65c1.28-3.2.88-5.46.62-8.64-1.14-14.33.41-2.68,2.33-13.9.33-1.91,1.71-4.9.75-6.13-2.77-3.56-.33-4.89.83-7.69,2.96-7.17,3.3-8.9,2.86-15.64-.1-1.53-2.29-4.26-2.76-5.98-.25-.92-2.25-1.43-3.71-1.73-.35-1.63-.89-4.51-.93-6.36l-.35-17.41.19-11.56c.05-2.8,2.21-12.87,2.36-18.24.21-7.12.14-8.71,2.43-15.49-1.9-1.32-7.95-8.1-5.97-9.42l7.47,1.73c2.36.55,4.34.54,6.9.18,2.77,6.45-8.79,10.08-3.41,25.08l-1.61,5.97c1.95,3.06,5.1,3.45,8.19,3.23.21.44.47,2.12.17,2.6s-1.47,1.09-1.73.58l-1.03-2.05-3.97,1.55c-1.08,1.4-2.29,2.2-3.47,2.86-4.58,2.55-1.87,7.04-.14,10.22,1.88,3.45,2.59,8.56,3.44,12.33,3.22-.97,7.97,1.79,9.13-1.21.39-1.01-.01-2.47-.49-4.13-.38-1.3.4-3.76.56-5.59.09-1.11-.6-3.59-.21-4.59s2.63-1.79,3.88-1.95l8.72-1.12c3.35-.43,7.98-.81,11.18-2.17.77-.32,2.59,1.78,2.61,2.15l5.49-3.04,8.26-4.34,11.51-.03,3.59,6.17ZM35.76,382.12c-.84,1.43-.78,4.64.05,5.24,8.99,2.53,5.36,7.27,9.18,8.88,1.62.68,4.76-.35,5.76-1.38,3.49-3.6,3.87.73,8.11-.49.65-.19,1.61-1.72,1.48-2.42-2.02-11.11,1.15-10.06-.19-21.78-.37-3.27-.11-7.15-.71-10.3-1.61-8.45-.81-12.92,2.17-21.19,2.27-6.28,2.35-15.04-.63-21.14-1.94-3.97-5.36-6.55-8.37-10.03l-10.59,8.75c-.04,2.98-1.09,4.38-3.07,5.97-2.46,1.97.78,6.19,1.46,8.38.89,2.89,1.22,4.79,4.57,5.15l.66,4.3c2.61,1.47,1.98,3.71,2.34,5.78l1.23,7.08c.55,3.16.92,7.28.09,10.23-1.67,1.59-7.33,1.46-8.17-.88-.54-1.51-1.18-6.08-3.58-4.36-3.23,2.32-1.65,7.56.4,9.82,2.57,2.83,5.58,3.79,9.93,3.07,1.38,4.25.98,8.06-.09,11.96-.45,1.63.02,4.26-1.67,5.1-1.11.56-4.46.96-4.61-.29l-.56-5.44c-.52-.94-4.54-1.18-5.2-.06ZM31.27,388.51c1.13-1.42.59-5.57-.5-6.95-.6-.76-1.95-1.4-1.96-2.05,0-.53.22-2.06.12-2.62l-1.42-7.5c-1.15-.54-3.56-.99-4.09-2.07-2.11-4.29.92-8.43-1.33-8.36l-3.11.1c-.78,11.32-.64,3.75-6.11,12.94-2.14,3.59-1.67,11.49-.97,16.36.47,3.3,5.15,4,7.54,5.32,1.84,1.02,6.55,4.6,8.93,2.84,2.84-2.1-1.39-2.6,2.91-8.02ZM50.87,428.82c2.23-.51,5.34-4.11,4.92-6.25-.63-.83-3.8-.65-4.18-1.59-1.66-4.07-.18-7.63-1.89-8.45l-2.96-1.42c-.28-.91-.1-3.71-1.05-3.85-7.11-1.11-7.84-.58-11.71,1.92-1.42.92-4.71,2.06-4.14,4.3,1,3.92,5.3,4.41,8.69,3.22.93-.33,2.32,1.91,2.81,3.01.82,1.85,3-.39,6.36,1.36.3.16-1.02,8.71,3.14,7.75ZM31.66,502.51l-2.56.61-3.28,2.92c1.18,1.29,3,1.84,4.56,1.29.91-.32,1.05-1.78,1.28-4.81Z"/>
    <path class="cls-25" d="M13.63,219.72c.4,3.18,4.96,5.49,7.37,5.19.17-.02.46-.03.66-.04l.82,3.75c-6.77,6.36-8.43-6.09-15.04,1.44-3.5,3.98-4.02,9.07-3.59,14.2l.45,5.41-1.83-.35.09-15.58c.71-.18,1.36-2.13,1.95-2.84l6.54-7.98-.39-4.75,2.97,1.56Z"/>
    <polygon class="cls-21" points=".76 494.63 .76 453.4 2.25 453.85 2.25 494.18 .76 494.63"/>
    <path class="cls-21" d="M.76,524.61v-23.98l1.14.03c.28,0,.36.9.36,1.65v21.18c0,.59-1.46,1.44-1.5,1.13Z"/>
    <path class="cls-21" d="M.76,410.68v-19.49l1.14.03c.28,0,.36.91.36,1.64v16.73c.01.54-1.48,1.35-1.5,1.09Z"/>
    <path class="cls-21" d="M.76,568.83v-9.74c2.48,2.27,3,7.9,0,9.74Z"/>
    <path class="cls-21" d="M.76,428.67v-9.74l1.1.03c.28,0,.42,1.05.42,1.42v6.84c0,.37-.13,1.41-.42,1.42l-1.1.03Z"/>
    <path class="cls-21" d="M.76,389.7v-8.24l1.1.03c.28,0,.42,1.05.42,1.39v5.41c0,.33-.14,1.38-.42,1.39l-1.1.03Z"/>
    <path class="cls-21" d="M.76,299v-8.24l1.1.03c.28,0,.42,1.05.42,1.39v5.41c0,.33-.14,1.38-.42,1.39l-1.1.03Z"/>
    <path class="cls-21" d="M.76,556.84v-7.5l1.1.03c.41.01,1.36,9.13-1.1,7.47Z"/>
    <path class="cls-21" d="M.76,287.01v-7.5l1.1.03c.28,0,.45,1.06.44,1.44l-.04,5.28c0,.37-1.35.83-1.51.75Z"/>
    <path class="cls-21" d="M.76,305v-3.75c.91-.12,1.69.9,1.68,1.87s-.77,2-1.68,1.88Z"/>
    <path class="cls-21" d="M.76,314.74v-3c.68.06,1.61.56,1.65,1.1.06.93-.77,2.18-1.65,1.9Z"/>
    <path class="cls-21" d="M.76,543.35v-3c.67.06,1.59.54,1.65,1.11.09.9-.81,2.21-1.65,1.89Z"/>
    <path class="cls-21" d="M.76,333.48v-1.5h1.1c.28,0,.71,1.12.44,1.18l-1.54.32Z"/>
    <path class="cls-21" d="M.76,440.66v-1.5h1.1c.28,0,.71,1.12.44,1.18l-1.54.32Z"/>
    <path class="cls-3" d="M219.54,388.35c-.36,1.23-1.38,3.53-1.61,4.81l-3.26,17.94c-.4,2.22-.06,4.36.38,6.32.54,2.42-.53,5.59-.53,8.33,0,25.18,2.17,29.28,8.79,51.96l2.13,7.29,5.65,9.52c5.35,9.02,10.9,17.76,17.41,25.95,2.17,2.73,4.88,5.23,7.19,7.81l6.1,6.82c1.21,1.35,4.06,3.22,5.73,4.43l17.94,13.08c3.82.65,7.19,2.89,9.7,5.96,1.71.59,4.41,1.53,6.33,2.32l11.77,4.86c6.73,2.78,13.46,3.4,10.03,7.13-6.63,7.22-8.35,4.81-9.74,9.41-1.52,5.04-3.98,9.53-5.47,14.28l-3.38,1.01c-2.72.81-4.46-3.9-6.26-4.82l-6.57-3.36c-2.28-1.17-4.6-1.7-6.9-3.07l-8.25-4.94c-16.63-9.96-26.64-15.35-41.34-30.61-16.63-17.26-28.61-34.66-37.57-56.91-1.3-3.24-3.45-6.25-4.53-9.61-1.41-4.35-2.29-8.46-3.42-12.94l-3.22-12.78c-.51-2.02-.31-5.17-.57-7.32,1.35-.76,2.92,5.35,5.45,4.82,1.86-.39,2.32-3.02,2.36-4.88l4.52-3.56c4.39.94,7.69-2.45,9.12-6.43l1.75-4.89c.37-1.02,2.53-2.37,2.49-3.45-.28-7.1-5.74-1.47-5.37-13.35l.41-13.16c.04-1.34-1.64-3.4-2.48-4.57-1.04-1.45-.97-8.47,3.47-8.91,4.71-.47,8.17-2.15,11.78-4.53Z"/>
    <path class="cls-15" d="M93.04,230.34l-2.22,3.71c2.42,1.54,4.02,3.16,5.8,4.1-2.76,2.69-7.3.24-12.73,3.44-.55-.19-2.93-1.31-3.77-1.15-1.74.33-2.65,3.96-3.84,5.25l-2.11,2.3c-1.62,1.76,3.62,3.79.82,10.41-4.46-3.2-9.41-5.68-14.38-8.77l-25.43-15.77c-4.79-2.97-9.21-5.88-13.52-8.99-.2,0-.49.02-.66.04-2.05-2.05-4.72-3.8-7.37-5.19l-2.97-1.56c-1.11-1.21-2.45-2.28-3.88-3.09-.16-5.15,6.34-5.21,6.43-6.53l.12-1.86,14.71-8.71,8.92-5.32c6.63-3.96,13.08-7.77,19.78-11.65l12.33-7.14,13.26-7.77,36.02-20.89c1.82-1.06,3.5-1.9,5.21-3.06,4.24-2.86,8.81-4.92,12.97-7.37.06,1.66-.23,4.22-.99,5.81-4.38,1.99-7.49,6.38-8.49,10.93l-4.25.92c-12,10.29-15.15.81-19.51,11.68-1.76-.44-4.52-1.03-5.21-.03l-2.67,3.91c-2.09,3.06-13.5,2.46-12.79,5.21,10.28,2.48,7.51,10,9.22,15.17s3.48,9.79,3.51,15.49l-5.12.97c-.37,8.98-4.34,5.57-7.82,13.68-.42.68-2.88.91-2.92,1.69l-.18,3.02-2.44,4.02c1.88,1.49,5.03,4.01,7.05,4.59,3.26-.68,6.3-1.54,9.13-1.5Z"/>
    <path class="cls-22" d="M223.33,261.45l1.74.23c-.33-.04,2.24,1.9-.1,6.48l-3.18,6.24.24,3.63c-2.26,2.27-3.99,4.44-5.48,6.71l-4.26,2.48-5.42,3.2c.12,1,.03,3.87-.75,3.9l-7.36.26c-9.39,9-3.02,18.84-5.71,20.75-3.38,2.4-4.57,1.06-6.18,3.14-1.49,1.93,3.91,10.35,11.79,12.35,7.59,1.92.86,4.54,11.14,2.55-1.02,1.38-2.05,3.16-3.01,4.62-1.43-.47-3.14-1.06-4.79-2.03l-81.83-48.27-21.61-13.72-16.19-10.25-7.41-5.31c2.8-6.62-2.44-8.65-.82-10.41l2.11-2.3c1.19-1.29,2.1-4.92,3.84-5.25.85-.16,3.23.96,3.77,1.15,5.43-3.2,9.96-.75,12.73-3.44,11.71,6.17,22.52,13.84,34.38,20.38l16.52,9.11,12.83,7.42c12.56,7.27,27,10.16,41.13,14.41,6.95-6.13,13.48-11.59,19.53-18.14,2.62-2.83,3.61-6.77,2.33-9.88Z"/>
    <path class="cls-2" d="M238.41,346.26c-2.05,3.39-4.62,6.94-6.27,10.78l-8.6,19.99c-1.61,3.74-2.9,7.63-4,11.32-3.6,2.37-7.07,4.06-11.78,4.53-4.43.44-4.51,7.46-3.47,8.91.84,1.17,2.52,3.23,2.48,4.57l-.41,13.16c-.37,11.88,5.09,6.25,5.37,13.35.04,1.08-2.12,2.43-2.49,3.45l-1.75,4.89c-1.43,3.99-4.73,7.37-9.12,6.43l-4.52,3.56c-.03,1.86-.49,4.49-2.36,4.88-2.53.52-4.1-5.58-5.45-4.82l-.82-6.79,1.83-9.41,2.97-5.87c1.09-.12,3.98-.39,5.29-.81,1.03-.33,1.59-2.4,1.45-3.7-.51-4.66-3.95-7.29-8.42-7.82-.26-2.54-1.02-5.36-3.26-5.4l.91-11.13c1-12.28,8.24-36.2,13.65-47.12l7.23-14.59c2.88-.36,5.78.45,7.39,3.24-.78,3.74,1.58,8.06,4.63,9.73,6.3-1.51,12.14-1.2,15.93-4.94l3.57-.36Z"/>
    <path class="cls-15" d="M252.58,286.96c.83.15,1.93,1.29,2.02,2.14.68,7.1,4.93.63,8.01,12.83l4.39,3.04,11.76-1.39c-1.57,2.82-5.28,4-7.6,6.12-5.45-.29-14.77,9.02-19.48,13.33-2.5-.01-5.97-.22-8.98-.45-2.04-.16-2.91,2.33-3.67,4.22-.42,1.06-3.49,1.95-4.42,1.27s-2.07-1.63-3.39-2.73l-4.54-.33c-1.06-2.47-2.18-4.09-4.98-4.55l-.65,5.55c2.46,1.79,5.28,5.33,7.76,6.12l7.6,2.42c2.53.81,4.89,1.82,4,5.17l.99,1.31c.36,2.22-1.93,3.5-3,5.26l-3.57.36c-3.79,3.75-9.63,3.44-15.93,4.94-3.05-1.67-5.4-5.99-4.63-9.73-1.61-2.79-4.51-3.6-7.39-3.24l-.08-.62c.95-1.46,1.99-3.24,3.01-4.62,6.83-9.19,13.78-18.34,21.22-27.33,6.43-7.79,14.34-13.05,21.54-19.08Z"/>
    <path class="cls-25" d="M148.41,388.77c.33,1.45.48,3.1.45,4.4.64.03,1.99.2,1.78.62-.17.33-.71,1.33-1.04,1.47l-2.35.97c-1.26-1.13-4.01-3.48-5.57-3.11l-8.56,2c-4.2.98-7.52,2.44-11.44,4.95l4.84,4.93c.59.6,2.52,1.64,2.46,2.5-.19,2.74.94,3.92,3.29,5.3l-3.14,4.12-2.34-1.73c-.48-.36-2,.71-1.9,1.3.07.44.38,1.74.55,2.15l1.26,3.01c.24.56-2.28,2.17-2.47,1.59l-1.55-4.88c-.44-1.39-5.01-1.39-5.74-.09-1.48,1.33-2.59,9.75-4.61,8.76.27-2.5-.24-5.36-.45-7.9l1.38-.84-.25-7.94c-.04-1.29-.15-2.79-.58-3.39v-2.25c.57,0,1.94-.54,1.69-1.05l-1.02-2.08c.16-.59.43-1.59.63-2.12,2.34-.54,5.51-1.55,6.25-3.76l20.34-5.39,8.09-1.52Z"/>
    <path class="cls-23" d="M79.52,295.39c2.92,2.79,5.44,6.47,6.62,10.25-3.43-1.51-6.09-3.71-8.73-7.03-1.08-1.35-4.37-1.44-6.01-2.11-2.13-.88-3.18-2.65-5.33-1.37-3.67,2.18-2.83,9.77-2.17,13.9s1.09,7.97,1.32,11.71c-1.06-.07-1.97-1.02-2.17-2.2-1.13-6.56-5.7-9.13-6.51-18.53-.33-3.83,1.79-4.78,4.17-6.17,3.28-1.92,5.57-1.21,8.94-.76s7.18-.25,9.87,2.31Z"/>
    <path class="cls-3" d="M185.24,444.46c-.22-1.78-1.24-10.84-1.65-11.34l.13-3.08c.25-6.2.89-12.42,1.39-18.59,2.24.04,3,2.86,3.26,5.4,4.47.52,7.91,3.15,8.42,7.82.14,1.3-.42,3.36-1.45,3.7-1.31.43-4.19.69-5.29.81l-2.97,5.87-1.83,9.41Z"/>
    <path class="cls-25" d="M178.15,429.58c-.99,3.18-4.59,4.2-3.33,8.11-4.18.02-5.99-3.06-5.63-6.73l.8-8.04c.06-.6.84-1.85,1.44-1.9,3.39-.23,7.52,5.98,6.72,8.55Z"/>
    <path class="cls-25" d="M183.71,430.04l-.13,3.08-2.39,2.62c-1.49-1.63-1.93-3.19-1.8-5.43l4.32-.27Z"/>
    <path class="cls-4" d="M728.41,215.06l.25,32.65c-11.94,7.94-24.62,14.64-37.08,21.87l-20.41,11.84-25.86,15.5c-.53.32-1.7.65-2.32.83-2.61-4.69-9.26.33-10.1-4.86l-14.17-10.84c-1.12-.86-1.95-2.7-1.9-3.9,8.03-5.27,16.52-9.84,25.21-14.8l19.96-11.4,24.35-13.99,12.24-7.26c6.83-4.05,7.34-5.19,14.73-9.37l11.24-6.37c.62-.35,2.17-2.04,2.57-1.53l1.28,1.64Z"/>
    <path class="cls-11" d="M590.49,255.38l3.09,2.1c-.46,2-.91,4.16-.4,5.51.43,1.15,3.12,1.55,4.91,1.81,1.58,2.54,3.42,5.68,4.72,8.55,3.72,8.17,3.04,2.81,8.13,6.86-3.73,3.04-8.23,5.07-12.75,7.74-13.46,7.92-26.94,15.3-39.65,23.7-2.23,1.47-5.81,2.63-8.31,3.73-.13-.45-.73-1.33-1.25-1.45s-1.87.33-2.13.8c-.33.58.08,1.75.44,2.35-.62.35-1.74.94-2.31,1.32.03-.26-.08-2.15-.61-2.05l-3.6.66-.06-3.98c-.02-1.47-10.96-2.42-14.55-.05-.32-.5-.85-2.25-.45-2.81s1.79-1.01,2.62-1.19l2.02-.45c.41-.09-.49-1.39-.9-1.48l-4.93-1.15c-2.09-1.87-5.12-4.37-7.7-3.65l-1.91,2.15c-.37.41-1.88-.41-1.93-.94l-.67-6.96c-.38-3.97.73-8.81,1.26-13,3.56,1.7,6.86,2.85,10.82,3.9.05.4-.23,1.76.25,1.74l2.49-.07c1.15,2.71,18.12-7.64,20.48-9.03l23.3-13.72,7.95-4.83,11.61-6.09Z"/>
    <path class="cls-24" d="M616.82,278.13c-.05,1.2.78,3.04,1.9,3.9l14.17,10.84c.84,5.19,7.49.18,10.1,4.86l-25.23,15.08-18.45,10.75c-3.18,1.85-6.19,3.66-9.35,4.71-1.07-4.19-8.57.34-15.9-6.06l-5.07-1.72c-3.43-10.84-9.2-5.36-10.43-8.86,12.71-8.4,26.19-15.78,39.65-23.7,4.53-2.66,9.02-4.69,12.75-7.74l5.87-2.07Z"/>
    <path class="cls-9" d="M550.05,179.8l32.95,19.68,12.74,7.56c2.45,1.45,5.13,2.8,7.43,3.72,6.7,4.47,13.89,8.27,20.98,12.78l8.49,5.4c-3.24,2.9-6.01,4.79-9.36,6.74l-17.51,10.19c-5.4,3.14-10.16,6.81-15.28,9.5l-11.61,6.09-7.95,4.83-23.3,13.72c-2.36,1.39-19.33,11.75-20.48,9.03.15-2.01-2.81-2.02-3.93-6.67,1.76,1.72,3.26,3.3,5.56,5.83,8.05-3.08,15.43-7.59,23.16-12.12l79.85-46.79-98.99-57.67c-6.29-3.67-12.47-6.51-17.75-10.66.04-.03,1.75.14,2.22.41l17.03,9.54,15.74,8.88Z"/>
    <path class="cls-3" d="M520.96,747.25c-7.08,4.36-14.2,8.75-21.85,12.75-12.35,6.45-18.85,11.74-32.85,18.84-4.28-1.87-3.37,3.23-14.37,1.52-1.91-.3-5.61-.06-6.14-1.78-.92-2.98-1.92-4.26-4.07-5.99-9.59-7.68-11.24-2.61-15-9.24-3.23-2.37-5.92-4.77-8.3-8.09-4.47-.64-8.93-3.64-11.14-7.62l-2.54-2.13c5.03-2.52,9.97-6.01,15.38-8.18,3.08-1.23,5.37-2.34,8.13-4.21l4.44-3c6.22-4.2,5.52-3.09,11.21-6.78,7.4-4.8,14.77-9.23,22.41-13.62l10.99-6.31,11.72-6.22,11.13-7c3.81-2.4,7.34-4.61,11.05-6.62.98,3.9-3.62,6.32-5.41,12l-8.22,1.76c-3.42.73-5.37,3.3-4.89,6.72l6.32,2.22,1.49,3.56c4.09,2.97,6.86,7.75,12.26,12.23-.23,1.67-.71,4.61-1.13,6.32-.34,1.38-4.21.79-5.91.78l4.96,8.19c.45.74,2.3,1.59,2.55,2.39s-.26,2.68-.49,3.71c2.97,1.05,5.84,2.19,8.27,3.79Z"/>
    <path class="cls-14" d="M656.6,670.53c-2.14.63-5.44,1.41-7.12,2.61-4.9,3.5-9.59,6.04-14.69,8.11.32-.99.61-2.84.39-3.8-.19-.81-2.09-1.33-3.3-1.51-4.44-.66-1.25-3.97-5-6.19-2-1.19-3.51-3.47-5.07-4.53l-6.75-4.57c-2.62-1.53-5.71-3.33-7.26-6.13s-3.06-7.25-6.81-7.5-7.81-.1-11.94-.13l-3.88-2.69c-.53-.37-.53-2.37-.54-2.75,4.78-2.73,9.36-5.99,14.54-8.68,10.02-5.21,19.31-10.9,29.06-16.56l5.72-3.32,15.58-8.69c1.8.53,3.53.98,4.94,1.25l10.82,24.5,11.53,28.13-16.99,10.14c-1.33.79-3.04.91-3.25,2.3Z"/>
    <path class="cls-14" d="M631.85,682.9c.6-.53,1.54-1.19,2.24-1.58-.52.67-1.42,1.3-2.24,1.58Z"/>
    <path class="cls-26" d="M394.32,740.32l1.03,6.16c.1.58.68,1.71,1.19,1.98s2.1.08,2.68-.22l5.47-2.74,2.54,2.13c2.21,3.98,6.68,6.97,11.14,7.62,2.38,3.32,5.07,5.72,8.3,8.09,3.75,6.63,5.4,1.55,15,9.24,2.16,1.73,3.15,3.01,4.07,5.99.53,1.72,4.23,1.49,6.14,1.78,11,1.71,10.1-3.39,14.37-1.52,12.25-6.21-28.81,16.92-17.79,10.03l-10.94,6.84-8.65,4.7c-6.26,3.41-10.7,7.45-12.67,8.49l-12.76,6.69c-4.14,2.17-7.75,4.64-11.57,6.62-.16-.55-.6-1.55-1.11-1.44-.64.13-2.36,1-3.14,1.1-3.2.42-7.99,1.15-11.53,2.34-1.04.35-3.72.17-4.45-.31-6.36-6.76-6.65-15.69-6.85-24.88l-.13-6.01c-.13-5.62-.2-10.89.3-16.59.22-2.5-.14-5.05-.19-7.41s.9-5.3-.17-7.67c-1.34-2.98-.38-5.18-.14-8.18.59-7.35.76-14.74.74-21.78,3.6-.68,3.1,6.49,13.18,7.08l6.05.35c2.04-1.04,5.7-2.92,7.59-1.7.63,1.35,1.14,3.25,2.3,3.21Z"/>
    <path class="cls-26" d="M364.89,666.4c-1.8-.62-2.37-2.96-3.25-5.66-.94,1.02-1.77,2.18-2.49,2.7-.21.15-10.42.89-9.49-5.39l-6.57-5.83-3.04-11.71c-.57-2.21-.18-4.21-2.53-6.21l.78,5.14-1.7,7.63c-.28,1.24-1.38,2.58-2.48,2.71-.04-5.75-.65-11.94.16-17.96l1.8-13.34c.49-3.62,7.28-17.58,11.92-18.07l1.8-6.43,7.71-7.65c2.51-1.05,7.38.74,7.38,4.17l.04,30.8-.04,45.1Z"/>
    <path class="cls-26" d="M394.88,696.96l.02,26.39c-1.28-.47-2.56-1.11-4.05-1.86l-3.66-1.84c-1.58-5.44-2.37-11.54-.7-17.12,1.03-3.46,5.33-5.48,8.39-5.56Z"/>
    <path class="cls-22" d="M202.4,165.79c-3.44,2.61-7.29,5.02-11.35,7.4l-26.79,15.75-11.08,6.26-32.33,18.58-12.74-.38c-3.21-.1-8.59-.76-10.71,1.99-2.64,3.41-.14,6.32-3.63,14.75l-.74.2c-2.83-.04-5.88.83-9.13,1.5-2.02-.58-5.17-3.1-7.05-4.59l2.44-4.02.18-3.02c.05-.78,2.5-1,2.92-1.69,3.47-8.11,7.45-4.7,7.82-13.68l5.12-.97c-.04-5.7-1.82-10.34-3.51-15.49s1.07-12.69-9.22-15.17c-.71-2.75,10.7-2.16,12.79-5.21l2.67-3.91c.68-1,3.44-.41,5.21.03,4.36-10.87,7.51-1.39,19.51-11.68l4.25-.92c1.01-4.55,4.11-8.94,8.49-10.93.77-1.59,1.06-4.15.99-5.81l20.74-12.21,16.93-9.96,9.03-5.19,24.27-14.19,12.14-7.02c-.27,2.55-1.37,5.12-3.21,7.16l-4.08,4.54.3,6.87c-3.59,4.19-8.51,5.99-13.78,7.19-6.33,1.43-9.13,8.89-6.43,14.84-2.18,4.66-4.06,9.47-6.71,13.84-.93,1.54-1.94,2.52-2.17,4.83-.11,1.13-2.38,2.1-3.94,2.65l-1.04,4.77c-6.05,5.06,2,7.68-3.42,13.78.35,4.85-7.63,9.46-4.27,10.23,4.85,1.11,7.42-3.78,13.38-4.64,2.82-3.71,6.52-5.56,10.98-6.35,2.55-.45,5.34-1.8,7.18-.13Z"/>
    <path class="cls-1" d="M289.41,115.42c-2.97,2.67-6.77,4.65-10.61,6.81l-6.7,3.78c.12-2.49-7.64.11-11.05-1.71-4.15-2.21-7.85-6.34-9.95-10.48-3.07-6.05-2.91-12.76-3.12-19.5-.06-1.86,1.21-3.43,3.07-3.76,16.16-2.83,11.08-8.08,18.59-10.38,5.22-1.6,5.63-5.15,6.59-9.59.5-2.31,3.01-4.56,1.28-7.94,9.68-7.63,4.36-6.22,10.64-12.32.88-.86,1.09-2.29.45-3.29l22.06-13.84,21.14-12.22c.93,1.83.56,3.85-.69,5.74l-4.27,6.47c-1.16,1.76-6.12,1.36-8.12,2.08l-7.31,2.65c-13.96,5.05-5.85,8.45-14.61,14.13,1.76,9.48-1.29,16.15.63,22.23,2.46,7.8.53,16.11-4.11,22.46-2.4,3.28-6.41,2.9-8.81,1.06-1.22-.8-4.96-1-6.21-.28-1.9,1.08-3.1,4.46-3.53,6.68l-4.74,2.53c-1.18,3.42.12,7.09,2.17,10.11l5.38.54c7.21,4.38,9.88-7.67,11.85-1.97Z"/>
    <path class="cls-21" d="M379.19,81.46c-.19,0-.47.1-.72.18l-13.53-7.74-65.95,38.34-83.82,48.78-26.67,15.52-76.62,44.47-20.25,12.16,34.67,20.69c12.49,7.46,23.83,16.75,37.63,21.46l37.17,12.69c2.56-2.8,4.32-4.7,6.57-6.92l14.91-14.68-11.93-39.22c4.83-3.73,9.24-7.4,14.28-9.79.23,2.12-8.59,5.7-12.02,9.67,2.49,12.21,5.88,23.36,10.41,34.38,1.28,3.11.29,7.04-2.33,9.88-6.05,6.55-12.58,12.01-19.53,18.14-14.12-4.25-28.57-7.14-41.13-14.41l-12.83-7.42-16.52-9.11c-11.85-6.54-22.66-14.21-34.38-20.38-1.78-.94-3.38-2.56-5.8-4.1l2.22-3.71.74-.2,14.07-8.4,13-7.96,32.33-18.58,11.08-6.26,26.79-15.75c4.05-2.38,7.91-4.79,11.35-7.4l1.47-.11c.32-.02.84-.67.87-.81,4.5-1.84,12.56-6.78,17.04-9.37l24.49-14.18,25.82-15.31,6.7-3.78c3.83-2.16,7.63-4.14,10.61-6.81,2.5-.74,5.24-2.02,7.34-3.66.95-.14,1.98-.79,2.4-1.6,6.39-2.94,12.33-7.26,18.84-10.88l11.06-6.15c5.8-3.23,11.53-6.23,16.58-10.04,1.21-.36,2.65-1.02,3.94-1.79l7.67-4.55c2.44-1.44,6.09-3.94,8.8-3.78,4.99,2.83,9.29,5.36,13.15,8.5Z"/>
    <path class="cls-22" d="M203.87,165.68c.21-.23.59-.7.87-.81-.03.14-.55.79-.87.81Z"/>
    <path class="cls-14" d="M534.41,476.61l-7.6,3.96c-3.11,1.63-6.04,5.41-10.11,5.67l-5.75,5.31c-.46,2.45-.94,6.23-1.02,9.03l-.77,26.27c-1.32,3.16-4.65,6.12-2.2,8.2l1.21-1.92c.24-.37,1.44-.06,1.9.14l8.23,3.52.51-1.74c2.18.65,5.6,2.17,6.88,4.02l4,5.8,2.51-2.41,8.76,4.66c1.3.69,4.38.07,5.66-.65l10.53-5.91,18.3-11.03,15.2-8.82,12.53-7.47c2.72,1.9-.99,23.49-1.02,23.56l-4.58,12.38c-2.16,5.83-5.19,10.4-9.09,15.14-2.14,2.59-4.1,5.4-6.52,7.77-4.42,4.34-8.68,8.52-14.06,11.54-16.38,9.18-19.29,10.36-38.89,11.82-7.84.58-15.16-1.69-22.31-3.19.14-.39.7-1.19,1.14-1.06l2.12.63,3.01.89c2.48.73.36-9.55-1.54-11.94s-7.4-5.54-9.89-6.72l-6.64-3.15c-3.28-1.56-5.31-3.16-5.31-7.32l-5.02-6.13c-4.61-2.08-8.28-4.01-12.39-6.68l-5.05-.35-1.43-6.51c-8.14-9.5-8.51-5.41-12.46-8.36-2.12-1.58-3.79-2.63-5.82-3.52.82-.44,2.29-1,3.77-1.6,1.51-1.88,1.54-6.04,1.67-8.87.44-9.61,1.45-18.81,3.88-28.14,3.25-12.52,7.19-10.82,11.48-21.03,7.96-11.15,22.24-20.79,34.62-25.73-.28,1.27-1.29,2.55-2,3.71-3.22,5.23,1.79,10.69,6.67,12.23,1.76.56,3.94,2.22,5.76,2.21,3.33-.02,4.64,1.5,5.33,4.45,1.26.88,3.88,3.02,5.33,3.34l7.08,1.57c1.63.36,3.06,1.11,3.41,2.41Z"/>
    <path class="cls-27" d="M483.51,71.01l24.78,13.56c6.38,3.49,12.63,6.88,17.9,11.23-.2.76-.61,2.09-1.29,2.3s-2.31-.45-3.04-.86l-6.33-3.54c-3.72,1.24-5.48-1.17-8.07-3.12l-9.44-7.13c-1.82-1.38-6.89-2.84-8.42-1.25-1.25,1.75-2.89,3.9-3.72,5.43l-3.49,6.43c-.77,2.6-.29,6.84-.85,9.64-.73,3.66-.82,6.63,2.62,9.04l1.04,7.97c1.4-.08,3.8-.54,4.15.14l1.76,3.35c3.94,7.51,5.79,16.12,4.45,23.59-6.42-2.3-12.13-6.52-18.38-10.12l-24.84-14.33-20.05-11.73-1.15-4.13c-1.94-6.96,9.97-5.08,10.35-9.93.2-2.59.4-5.38.44-7.58.05-2.56-.71-4.32,1.68-6.13,5.56-4.21-4.74-6.53-2.78-13.19.63-2.12,3.83-2.39,5.39-3.11,2.06-.95,4.2-1.89,6.38-1.79l7.97.34,4.84,4.39c3.67-.44,6.61-.4,10.01.34,7.58,1.65,7.55,3.25,8.08.18Z"/>
    <path class="cls-22" d="M381.25,81.56l1.63.87c.75.82,1.88,1.71,3.08,2.41l18.86,11.06,13.43,7.38,14.04,8.33,20.05,11.73,24.84,14.33c6.25,3.61,11.96,7.82,18.38,10.12,3.7,2.83,8.08,5.7,12.58,8.09,2.78,1.48,4.75,3.39,6.92,5.1l-47.76-27.34-39.37-22.85-49.45-29.15c.25-.08.52-.19.72-.18l2.06.1Z"/>
    <path class="cls-12" d="M423.52,35.93c-3.62,5.41-10.54-3.59-18.84,3.73l-4.11,3.62-.68,5-4.96,7.62c-10.28,1.47-10.97,12.04-16.56,18.95,1.05,2.18,2.25,4.74,2.88,6.72l-2.06-.1c-3.87-3.13-8.16-5.66-13.15-8.5-2.71-.16-6.36,2.34-8.8,3.78l-7.67,4.55c-1.28.76-2.72,1.43-3.94,1.79-2.85-5.91-6.37,2.26-12.35-3.41l3.28-12.36,8.39-6.51c5.66-4.4-4.92-5.17,1.6-16.8-.41-3.36-1.17-8.09-2.39-11.19-1.49-3.8-3.59-10.33-.19-13.85,2.53-2.62,7.46.09,12.22-2.17,8.33-3.96,2.82,4.49,15.84-3.23.84-.96,8.35,2.39,8.97.42l.69-2.2c9.89,4.36,19.03,10.4,28.7,16.11l8.4,4.97c1.78,1.05,3.41,1.99,4.75,3.07Z"/>
    <path class="cls-12" d="M418.25,103.28l-13.43-7.38-18.86-11.06c-1.2-.7-2.33-1.59-3.08-2.41,6.25-1.9,8.71,4.66,15.09,6.8,7.71,8.37,18.21,1.54,20.29,14.05Z"/>
    <path class="cls-26" d="M332.05,405.32c3.92,2.82,8.49,4.83,12.98,7.43l18.6,10.76c.05.42.15,1.15.15,1.53l-.26,80.32.19,30.3c.09,1.03,1.07,3.41,1.29,4.11l-6.15,3.61c-3.24-.72-5.22-.18-7.74,1.87l-6.29,5.12c-5.2,4.24-6.95,8.72-9.82,8.01-.66-2.85-1.02-5.97-1.02-8.8l-.05-28.7.13-16.47c.06-7.18.22-14.09-.17-21.18-.33-5.92-.14-11.65-.14-17.59v-15.19c0-4.34-1.44-7.21-4.97-9.57l-9.42-6.29-16.85-8.51-4.94-2.8c-3.03-1.72-5.75-4-8.76-6.02-2.6-1.74-6.62-2.56-9.34-4.13-4.21-2.42-7.9-4.85-12.07-6.33-.98-1.29-3.31-2.87-4.65-3.87-1.29-11.96-2.31-1.49-1.54-17.47.5-10.31,6.03-8.86,5.63-16.04l31.76,17.74,33.45,18.16Z"/>
    <path class="cls-14" d="M461.79,402.43l-37.38,22.02-23.17,13.54c-2.04,1.19-3.96,2.24-5.56,3.46-5.35-.06-11.51,1-16.57-1.58-2.05-4.9-6.34-6.9-12.08-7.58-2.39.09-.32-6.96-3.26-7.27,0-.39-.1-1.12-.15-1.53,9.68-5.08,18.69-11.52,28.23-16.7l12.3-6.68c7.6-4.13,14.51-9.81,22.23-13.42l7.52-3.52c.33-.05,14.72,7.45,14.65,7.31.43.91,1.07,3.14,1.41,4.18,8.48,1.61.69,3.02,9.05,5.39,1.26.36,2.61,1.4,2.79,2.38Z"/>
    <path class="cls-8" d="M495.27,212.68c-5.99,1.95-11.47,4.48-16.25,9.08-12.35-.75-7.58,1.65-18.08,2.76l-2.02-2.16c-.41-.44-1.71,2.14-1.47,2.7.57,1.31,2.74,3.4,4.01,4.57.1.55-.2,2.58-.92,2.72l-3.84.73c.92,7.08,8.55,4.89,8.04,7.27l-.72,3.37,3.45-1.97c.77-.44,2.96.86,3.56,1.63,4.81,6.17,11.45-.75,15.29,1.74,2.68,1.74,5.08,4.65,7.76,5.57,1.99.68,3.52.62,4.22,2.2.79,1.77.43,2.86-.6,5.11-1.65,3.59,3.15,2.66,3.97,5.41.26.88-2.28,2.54-2.95,1.95l-3.64-3.21-4.55,6.78c1.35,1.17,3.23,1.67,4.7,1.78,4.81.38,6.95-1.64,8.44-5.75.43-1.18,1.49-3.28,1.07-4.32-.5-1.21-1.4-2.99-.95-3.71s1.73-1.91,2.58-2.76l-.74-11.83c-.65-10.46,4.1-9.93,1.95-14.17l5.86-2.6c.22.16.62.42.79.6,0,.2.03.93,0,1.22-.03.42,1.09.25,1.49.36l2.11.61-9.66,32.17c-.52,1.72-2.36,5.81-1.12,7.12l8.11,8.51c.63.66,2.2,1.33,2.86,1.73,1.47.9,3.81,3.14,5.19,4.48,1.12,4.65,4.08,4.67,3.93,6.67l-2.49.07c-.48.01-.2-1.35-.25-1.74-3.96-1.05-7.27-2.2-10.82-3.9-.53,4.19-1.64,9.03-1.26,13l.67,6.96c.05.53,1.56,1.35,1.93.94l1.91-2.15c2.58-.71,5.61,1.78,7.7,3.65l4.93,1.15c.4.09,1.3,1.39.9,1.48l-2.02.45c-.83.18-2.22.63-2.62,1.19s.13,2.32.45,2.81c3.59-2.37,14.53-1.42,14.55.05l.06,3.98,3.6-.66c.53-.1.63,1.79.61,2.05-8.56,5.65-26.25,15.27-35.11,20.48-3.17,1.86-5.53,3.3-7.59,4.42l-9.77,5.31c-.03-1.12-2.02-3.14-2.39-4.33-.66-10.3-4.83-10.64-.95-17.17.77-1.29-.75-4.12-.93-5.76-.17-1.47,2.8-3.67,4.02-4.71l-1.43-3.15c2.66-.5,6-.85,7.57-2.2,4.42-3.8-2.42-12.17-4.73-13.87-2.94-.51-4.86-1.21-6.83-3.31l-5.03-5.36c-5.32-5.66-12.22-9.11-18.5-13.84-2.16-1.63-5.31-2.68-7.52-3.98l-8.13-4.78-.71-4.07c1.73-.64,3.11-2.55,2.09-3.33-10.01,1.19-14.49-6.72-16.21-1.3l2.59.97c.51.19-.24,1.6-.53,1.77-1.8-.84-4.36-1.34-6.15-2.36-2.31-4.66-2.43-9.56,1.49-13.55,1.14-1.16,2.4-1.97,4.24-2.68,1.52-2.47,2.84-6.83,4.76-9.17,1.69-2.06,2.71-3.42,3.98-5.95l4.67-4.29c1.77-1.63,2.15-3.96,1.01-5.71,1.7-1.53,3.1-4.71,3.97-6.7,3.08.44,9.14-9.34,13.35-12.62,9.42,4.13,17.49,8.44,26.34,13.3,1,.55,2.17,1.57,2.72,2.28ZM504.63,290.76c2.69-2.72-.49-4.93-1.53-6.62s-1.94-2.92-3.11-3.83c-1.01-.79-3.78.14-3.64,1.18.34,2.53.5,4.72.43,7.12-.03,1.31,1.9,2.97,3.19,3.37,1.09.34,3.66-.21,4.66-1.23ZM522.98,310.01c-.42-1.88-5.72-.99-6.39.65.17,2.61,7.19,2.9,6.39-.65Z"/>
    <path class="cls-13" d="M462.38,365.87l-28.49,17.3-7.52,3.52c-2.87-1.27-7.47-.92-10.3,1l-5.28,3.57c-3.25,9.04-5.77,2.45-6.66,8.85l-12.3,6.68-1.42-2c-3.27.7-6.44.66-9.54-.12l-8.88-2.24c-2.36-.6-4.01-4.45-4.57-6.8-2.47-1.69-3.54-4.11-2.51-6.9.47-1.28.84-2.5,1.1-3.54,2.32-1.77,5.74-2.61,8.16-4.15.84.62,2.89,1.63,4.06,1.45l9.09-1.44c1.81-.29,4.99-2.56,6.7-3.45,2.66-10.02,9.55-10.52,9.63-11.11l.31-2.38,6.56-4.08,13.27-7.68,15.95-9.38,29.93-17.41c3.17,3.9-2.63,8.89-4.78,9.55-6.75,2.05-12.13,3.58-17.92,7.52-1.31.89-4.91,3.05-3.46,4.92,3.36,4.35,7.87,6.95,12.58,9.5,4.25,2.3,1.71,5.34,6.28,8.82Z"/>
    <path class="cls-17" d="M534.37,360.71c-1.36,1.69-3.69,2.5-5.87,3.76l-25.25,14.54-41.47,23.42c-.19-.98-1.53-2.02-2.79-2.38-8.36-2.37-.57-3.78-9.05-5.39-.34-1.05-.99-3.27-1.41-4.18.07.15-14.32-7.36-14.65-7.31l28.49-17.3c9.9-6.01,20.02-11.79,30.14-17.29l9.77-5.31c-1.65,3.06,4.6,6.11,7.23,7.38,3.14,1.53,4.69,2.53,6.08,5.75,1.69,3.94,7.18,3.4,10.55,2.63,2.8.71,5.62,1.65,8.24,1.68Z"/>
    <path class="cls-16" d="M428.74,257.78c1.78,1.02,4.35,1.51,6.15,2.36l12.76,5.97,8.13,4.78,3.51,6.04c-.06,4.15-7.39,9.67-10.73,11.98l-5.56,3.85c-.21.89,1.51,3.48,2.72,4.13,1.49.81,3.75.28,6.18-.11l2.27,5.96,8.29,6.04c2.44,1.78,3.58,3.79,3.06,6.79-18.29-15.35-33.11-24.89-56.78-32.21-4.59-1.42-9.33-2.02-13.7-2.95l-6.81-1.45c-.84-5.5,5.52-1.93,6.37-8.78l.98-7.84c3.88-.68,9.5-7.99,8.38-11.28,11.45,2.43,14.21,4.05,24.77,6.74Z"/>
    <path class="cls-27" d="M728.34,439.74c-3.58,20.9.28,62.98.08,84.02-8.71,3.12-23.8,1.27-31.48,2.16l-.22-31.88.25-49.73c1.71.44,3.45.15,5.51-.25,2.72-.54,3.83-1.21,5.27-3.64,1.03-1.74,4.42.63,4.94,2.46.81,2.85,2.49,3.65,4.94,4.57l4.59,1.73,3.65-7.33c.38-.77,2-1.93,2.47-2.11Z"/>
    <path class="cls-3" d="M696.63,436.14l.34,8.16-.25,49.73c-6.05-1.34-2.1-17.58-6.84-22.49-2.56,1.78-4.85,3.36-7.16,1.45-1.48-1.23-2.15-4.06-2.97-6.14s-5.65-1.36-6.65-2.83l-4.39-6.5c-3.87-5.73.42-9.79-4-10.71l.1-39.71,1.35.02c.35,2.62.1,7.12,1.31,9.04l4.17,6.62c1.02,1.63,3.06,2.96,4.73,4.22,4.52,3.43,9.04,6.3,15.25,4.48l1.23,5.33,3.78-.67Z"/>
    <path class="cls-16" d="M366.02,385.2c-.26,1.04-.63,2.25-1.1,3.54-1.03,2.8.04,5.21,2.51,6.9.57,2.35,2.21,6.21,4.57,6.8l8.88,2.24c3.1.78,6.27.81,9.54.12l1.42,2c-9.53,5.18-18.55,11.62-28.23,16.7l-18.6-10.76c-4.49-2.6-9.06-4.61-12.98-7.43-.58-2.41-1.33-5.36-2.76-7.91s-5.69-6.03-8.4-6.86l-6.88-2.11c-3.03,1.67-6.6,1.81-8.62-.81,4.75-7.59-3.61-6.64,10.17-14.27,8.59-4.75,15.06.05,16.45-4l18.57,9.8,10.94,5.92c1.26.68,3.45.91,4.5.11Z"/>
    <path class="cls-23" d="M111.89,419.1c-.34-4.03-.59-8.45.54-12.17.44.6.54,2.1.58,3.39l.25,7.94-1.38.84Z"/>
    <path class="cls-23" d="M119.98,395.68c-.74,2.21-3.9,3.23-6.25,3.76.63-1.73,4.18-3.22,6.25-3.76Z"/>
    <path class="cls-23" d="M112.43,404.69c0-.89.37-2.26.67-3.13l1.02,2.08c.25.51-1.13,1.04-1.69,1.05Z"/>
    <path class="cls-23" d="M64.46,349.22v32.23l-1.1-.03c-.28,0-.41-1.05-.41-1.37l.03-12.8c-.54-2.44-.52-4.65-.4-7.08l.49-9.5c.02-.48,0-1.39.27-1.4l1.12-.04Z"/>
    <path class="cls-23" d="M99.73,616.69l-4.54-.39c.45-.88,1.51-2.3,1.9-1.96l2.64,2.34Z"/>
    <path class="cls-23" d="M64.46,343.23v2.25c-.51-.04-1.26-.03-1.47-.39s-.09-1.81.32-1.82l1.15-.04Z"/>
    <path class="cls-23" d="M3.73,212.77c.82.86,1.93,1.67,3.04,2.3,1.44.81,2.77,1.88,3.88,3.09l.39,4.75-6.54,7.98c-.58.71-1.24,2.66-1.95,2.84.02-3.97-.57-8.79,1.02-12.63l-1.7-7.4c-.09-.39,2.04-1.13,1.84-.94Z"/>
    <path class="cls-28" d="M13.32,206.68l-.12,1.86c-.08,1.32-6.59,1.38-6.43,6.53-1.11-.63-2.22-1.44-3.04-2.3,2.15-3.07,6.42-4.21,9.59-6.09Z"/>
    <path class="cls-17" d="M542.19,472.88c-2.36,1.44-5.36,2.47-7.78,3.73-.35-1.3-1.79-2.05-3.41-2.41l-7.08-1.57c-1.45-.32-4.07-2.46-5.33-3.34-.69-2.94-2.01-4.46-5.33-4.45-1.82,0-4-1.65-5.76-2.21-4.88-1.54-9.89-7-6.67-12.23.71-1.16,1.72-2.44,2-3.71,7.55-3.01,25.97-4.35,34.91-3.4,10.34,1.09,21.4,4.53,29.72,10.47.52.37,1.33,1.83,1.12,2.27s-.99,1.32-1.46,1.61l-24.91,15.23Z"/>
    <path class="cls-14" d="M517.23,533.57c.2.13.51.46.69.65-2.02-.06-2.95-.19-.69-.65Z"/>
    <path class="cls-20" d="M558.55,311.64c1.23,3.51,6.99-1.98,10.43,8.86l5.07,1.72c7.34,6.4,14.83,1.87,15.9,6.06-2.11,2.39-5.28,3.74-8.34,5.48l-21.42,12.26c-8.76,5.01-16.98,10.43-25.82,14.69-2.62-.03-5.44-.97-8.24-1.68-3.37.77-8.86,1.32-10.55-2.63-1.39-3.23-2.93-4.23-6.08-5.75-2.63-1.27-8.88-4.32-7.23-7.38,2.06-1.12,4.42-2.56,7.59-4.42,8.86-5.2,26.55-14.83,35.11-20.48.57-.38,1.7-.97,2.31-1.32l2.94-1.69c2.5-1.09,6.09-2.25,8.31-3.73Z"/>
    <path class="cls-4" d="M728.53,368.71v8.99c0,9.93,1.1,2.22.25,12.82-.28,3.47-.52,7.09-.4,10.26-2.21.84-4.64,1.1-7.33,1.11l-9.89.03c-3.29,0-7.48.55-10.44.9l-.92,4.1c-.21.94-2.08,1.24-3.1,1.5l-.26-25.47-.22-75.91c.4-.56,1.45-1.75,2.09-2.14l4.91-3.04c8.63-3.14,16.12-9.76,25.28-14.16l.02,81.02Z"/>
    <path class="cls-17" d="M696.23,307.04l.22,75.91c-2.06.93-3.29-2.49-4.55-3.08-2.4-.26-5.24-.61-7.42-2.02l-9.4-6.04c-2.4-1.54-6.55-2.28-8.1-5.21-.35-.67-2.06-1.57-2.56-1.65-.12-13.24-1.2-26.73.28-40.14,11.08-5.48,21.02-13.69,31.53-17.77Z"/>
    <path class="cls-14" d="M696.46,382.95l.26,25.47-.08,27.72-3.78.67-1.23-5.33c-6.22,1.83-10.73-1.05-15.25-4.48-1.66-1.26-3.7-2.59-4.73-4.22l-4.17-6.62c-1.21-1.92-.95-6.42-1.31-9.04l-1.35-.02-.39-42.15c.51.08,2.21.99,2.56,1.65,1.55,2.93,5.69,3.67,8.1,5.21l9.4,6.04c2.18,1.4,5.03,1.76,7.42,2.02,1.26.59,2.49,4.02,4.55,3.08Z"/>
    <path class="cls-27" d="M708.94,586.89c-4.33.71-21.19,1.22-25.4,0-4.35-14.02-13.12-28.06-16.92-42.91l55.9.06c.57,0,2.13.76,2.07,1.28l-.23,1.99c-.38,3.2-1.12,6.05-2.3,8.94-3.48,8.5-6.64,16.92-10.89,25.03-1.05,2-1.93,3.63-2.22,5.62Z"/>
    <path class="cls-26" d="M334.23,735.22v-59.96s1.2.02,1.2.02c.29,0,.24.9.2,1.49-.23,3.51,1.55,6.46,2.26,9.89,1.91,9.28.17,29.83-1.16,40.35.85-6.72-3.23,13.96-2.51,8.21Z"/>
    <path class="cls-26" d="M334.22,673.01v-7.5s1.53.22,1.53.22l.08,6.48c0,.41-1.49.91-1.61.8Z"/>
    <path class="cls-22" d="M301.34,258.66c2.93,1.54,2.7-1.15,8.5,1.19-1.93,4.6-.28,7.17,2.22,10.42,1.16,1.52,2.94,4.35,4.51,4.95,3.81,1.45,6.47,3.75,5.66,7.43-13.34,2.74-32,13.82-43.47,20.93l-11.76,1.39-4.39-3.04c-3.09-12.2-7.33-5.72-8.01-12.83-.08-.85-1.19-1.99-2.02-2.14,10.22-8.57,21.09-16.39,33.09-22.53,4.79-2.45,10.63-3.95,15.67-5.77Z"/>
    <path class="cls-7" d="M355.9,247.44c2.79,7.7,5.17,3.07,6.3,10.25.67,4.24.16,7.52-3.71,11,3.73,5.08,12,4.79,11.17,7.73-8.14-.07-22.97,1.2-31.06,2.86l-16.38,3.36c.81-3.69-1.85-5.99-5.66-7.43-1.58-.6-3.35-3.43-4.51-4.95-2.49-3.25-4.14-5.82-2.22-10.42-5.81-2.34-5.57.35-8.5-1.19,8.83-4.9,26.01-6.04,33.85-9.72l20.72-1.5Z"/>
    <path class="cls-9" d="M359.02,247.29c15.08-.73,30.22.64,44.95,3.76,1.13,3.29-4.5,10.6-8.38,11.28l-.98,7.84c-.86,6.84-7.21,3.28-6.37,8.78-6.16-1.31-12.29-2.46-18.58-2.52.83-2.94-7.44-2.65-11.17-7.73,3.87-3.48,4.37-6.77,3.71-11-1.13-7.18-3.51-2.56-6.3-10.25l3.12-.15Z"/>
    <path class="cls-2" d="M271.16,309.69l-8.13,7.44c-4.5,4.12-8.88,8.38-13,12.96-3.21,3.57-5.42,7.81-8.62,10.91l-.99-1.31c.89-3.35-1.47-4.36-4-5.17l-7.6-2.42c-2.48-.79-5.3-4.32-7.76-6.12l.65-5.55c2.8.45,3.92,2.08,4.98,4.55l4.54.33c1.33,1.1,2.45,2.04,3.39,2.73s3.99-.21,4.42-1.27c.76-1.89,1.62-4.37,3.67-4.22,3,.23,6.48.44,8.98.45,4.71-4.3,14.02-13.62,19.48-13.33Z"/>
    <path class="cls-9" d="M381.68,11.78l-.69,2.2c-.62,1.97-8.13-1.38-8.97-.42-13.02,7.71-7.51-.73-15.84,3.23-4.76,2.26-9.69-.45-12.22,2.17-3.39,3.52-1.3,10.05.19,13.85,1.21,3.1,1.97,7.83,2.39,11.19-6.53,11.63,4.06,12.41-1.6,16.8l-8.39,6.51-3.28,12.36c5.98,5.67,9.51-2.5,12.35,3.41-5.04,3.82-10.77,6.82-16.58,10.04l-11.06,6.15c-6.5,3.62-12.45,7.94-18.84,10.88-.36-.13-1.41-.58-1.59-.17l-.8,1.77c-2.1,1.63-4.83,2.92-7.34,3.66-1.96-5.7-4.64,6.35-11.85,1.97l-5.38-.54c-2.05-3.02-3.35-6.69-2.17-10.11l4.74-2.53c.42-2.22,1.63-5.6,3.53-6.68,1.26-.71,5-.52,6.21.28,2.41,1.84,6.42,2.22,8.81-1.06,4.64-6.35,6.57-14.66,4.11-22.46-1.92-6.08,1.13-12.75-.63-22.23,8.76-5.68.65-9.08,14.61-14.13l7.31-2.65c2-.72,6.96-.32,8.12-2.08l4.27-6.47c1.25-1.89,1.62-3.91.69-5.74l14.68-8.9,14.82-8.48c1.06-.6,3.78-1.96,4.93-1.38,5.47,2.76,10.79,6.61,15.46,9.55Z"/>
    <path class="cls-8" d="M728.39,400.79l.67,17.55c.21,5.48,1.09,10.84.14,16.36l-.86,5.04c-.47.19-2.09,1.34-2.47,2.11l-3.65,7.33-4.59-1.73c-2.44-.92-4.13-1.73-4.94-4.57-.52-1.83-3.91-4.2-4.94-2.46-1.44,2.42-2.54,3.1-5.27,3.64-2.06.41-3.8.69-5.51.25l-.34-8.16.08-27.72c1.01-.26,2.88-.56,3.1-1.5l.92-4.1c2.96-.35,7.15-.89,10.44-.9l9.89-.03c2.68,0,5.11-.26,7.33-1.11Z"/>
    <path class="cls-16" d="M403.97,364.12l-.31,2.38c-.08.58-6.97,1.08-9.63,11.11-1.71.89-4.89,3.17-6.7,3.45l-9.09,1.44c-1.17.18-3.22-.82-4.06-1.45,9.57-6.1,20.15-10.94,29.78-16.93Z"/>
    <path class="cls-28" d="M35.76,382.12c.66-1.13,4.69-.88,5.2.06l.56,5.44c.14,1.25,3.5.84,4.61.29,1.69-.85,1.22-3.48,1.67-5.1,1.07-3.9,1.47-7.72.09-11.96-4.34.71-7.36-.24-9.93-3.07-2.05-2.26-3.63-7.5-.4-9.82,2.4-1.72,3.04,2.85,3.58,4.36.84,2.34,6.5,2.47,8.17.88.83-2.95.46-7.07-.09-10.23l-1.23-7.08c-.36-2.07.26-4.31-2.34-5.78l-.66-4.3c-3.35-.36-3.68-2.27-4.57-5.15-.68-2.19-3.92-6.41-1.46-8.38,1.99-1.58,3.03-2.99,3.07-5.97l10.59-8.75c3.01,3.48,6.43,6.07,8.37,10.03,2.98,6.1,2.89,14.85.63,21.14-2.98,8.27-3.79,12.74-2.17,21.19.6,3.15.34,7.03.71,10.3,1.34,11.72-1.83,10.66.19,21.78.13.7-.83,2.23-1.48,2.42-4.23,1.22-4.62-3.11-8.11.49-1,1.03-4.14,2.06-5.76,1.38-3.82-1.61-.19-6.36-9.18-8.88-.83-.6-.89-3.82-.05-5.24Z"/>
    <path class="cls-28" d="M31.27,388.51c-4.29,5.42-.07,5.92-2.91,8.02-2.38,1.76-7.09-1.82-8.93-2.84-2.39-1.32-7.07-2.02-7.54-5.32-.7-4.87-1.16-12.77.97-16.36,5.48-9.19,5.33-1.62,6.11-12.94l3.11-.1c2.25-.07-.78,4.06,1.33,8.36.53,1.08,2.94,1.52,4.09,2.07l1.42,7.5c.11.56-.12,2.09-.12,2.62,0,.66,1.36,1.3,1.96,2.05,1.09,1.37,1.62,5.52.5,6.95Z"/>
    <path class="cls-23" d="M50.87,428.82c-4.17.96-2.84-7.6-3.14-7.75-3.37-1.75-5.54.49-6.36-1.36-.49-1.1-1.88-3.34-2.81-3.01-3.39,1.19-7.69.71-8.69-3.22-.57-2.24,2.72-3.38,4.14-4.3,3.87-2.51,4.6-3.03,11.71-1.92.95.15.77,2.95,1.05,3.85l2.96,1.42c1.71.82.23,4.38,1.89,8.45.38.93,3.55.75,4.18,1.59.42,2.14-2.69,5.74-4.92,6.25Z"/>
    <path class="cls-23" d="M31.66,502.51c-.23,3.03-.37,4.49-1.28,4.81-1.56.55-3.39,0-4.56-1.29l3.28-2.92,2.56-.61Z"/>
    <path class="cls-28" d="M21,224.91c-2.41.3-6.98-2.01-7.37-5.19,2.65,1.39,5.32,3.14,7.37,5.19Z"/>
    <path class="cls-1" d="M279.53,214.96c.08,2.62-6.05,1.56-8.02,2.31l-7.3,2.81c-2.16.83-4.52,2.68-7.02,2.64l-10.99-.14-3.75,5.34c4.57,10.23,5.31,3.4,9.49,8.72,8.3,10.58,1.62,6.67,15.31,13.24,2.27,3.4,4.27,7.28,6.29,10.93,3.34,6.02,8.29-1.21,12.13,3.61-12,6.14-22.87,13.96-33.09,22.53-7.19,6.03-15.1,11.29-21.54,19.08-7.43,9-14.39,18.14-21.22,27.33-10.28,1.99-3.56-.63-11.14-2.55-7.89-2-13.28-10.42-11.79-12.35,1.61-2.08,2.8-.74,6.18-3.14,2.69-1.91-3.68-11.75,5.71-20.75l7.36-.26c.78-.03.87-2.9.75-3.9l5.42-3.2,4.26-2.48c1.5-2.28,3.22-4.44,5.48-6.71l-.24-3.63,3.18-6.24c2.34-4.59-.23-6.53.1-6.48l-1.74-.23c-4.53-11.02-7.91-22.17-10.41-34.38,3.43-3.97,12.25-7.55,12.02-9.67,3.43-1.62,6.66-3.52,10.25-5.6,9.1-5.28,18.18-9.75,27.88-14.56l12.76,12.64c1.45,1.44,2.75,3.46,3.69,5.09Z"/>
    <path class="cls-8" d="M550.24,315.37l-2.94,1.69c-.36-.6-.77-1.77-.44-2.35.27-.46,1.61-.92,2.13-.8s1.12,1.01,1.25,1.45Z"/>
    <path class="cls-15" d="M120.86,213.78l-13,7.96-14.07,8.4c3.48-8.44.99-11.34,3.63-14.75,2.12-2.74,7.51-2.08,10.71-1.99l12.74.38Z"/>
    <path class="cls-1" d="M299.14,110.16c-.42.81-1.44,1.46-2.4,1.6l.8-1.77c.19-.41,1.23.04,1.59.17Z"/>
    <path class="cls-16" d="M426.37,386.69c-7.72,3.61-14.62,9.29-22.23,13.42.88-6.4,3.4.19,6.66-8.85l5.28-3.57c2.83-1.92,7.43-2.28,10.3-1Z"/>
    <path class="cls-27" d="M350.03,176.08c14.84-.8,29.5-.28,44.9,1.61l11.06,40.48,31.2,9.16c2.18-1.9,4.42-4.08,6.45-6.26,1.65-1.76,3.62-3.2,5.24-4.66,1.14,1.75.76,4.09-1.01,5.71l-4.67,4.29c-1.27,2.54-2.28,3.9-3.98,5.95-1.92,2.34-3.24,6.7-4.76,9.17-1.85.71-3.11,1.52-4.24,2.68-3.91,3.99-3.8,8.89-1.49,13.55-10.56-2.68-13.31-4.31-24.77-6.74-14.73-3.12-29.87-4.49-44.95-3.76l-1.75-2.52-3.54-6.14c.3-1.6.78-3.83,1.34-6.13.29-1.2,3.25-.23,5.09.96l2.29-11.31c1.25-6.16,2.19-12.25-.25-18.24,2.35-2.32,3.07-5.59,1.15-8.06l-5.15-.54c-4.67-.49,1.07-8.01-2.11-11.59h-4.05c-1.36,0-4.06-1.02-4.88-2.2-.67-.95-.77-3.15-.8-4.48,1.02-.37,2.68-.92,3.68-.97Z"/>
    <path class="cls-11" d="M495.27,212.68l3.34.83c2.85,2.18,8.15,5.79,10.95,7.62,1.23.8,3,3.17,3.89,4.44l-5.86,2.6c2.15,4.24-2.6,3.71-1.95,14.17l.74,11.83c-.85.86-2.14,2.04-2.58,2.76s.46,2.51.95,3.71c.42,1.03-.64,3.14-1.07,4.32-1.49,4.11-3.63,6.13-8.44,5.75-1.47-.12-3.35-.61-4.7-1.78l4.55-6.78,3.64,3.21c.67.59,3.22-1.07,2.95-1.95-.83-2.75-5.63-1.82-3.97-5.41,1.04-2.25,1.39-3.34.6-5.11-.7-1.57-2.23-1.52-4.22-2.2-2.69-.92-5.09-3.83-7.76-5.57-3.84-2.49-10.48,4.43-15.29-1.74-.6-.77-2.79-2.07-3.56-1.63l-3.45,1.97.72-3.37c.51-2.39-7.12-.19-8.04-7.27l3.84-.73c.72-.14,1.02-2.16.92-2.72-1.27-1.17-3.44-3.27-4.01-4.57-.24-.56,1.06-3.15,1.47-2.7l2.02,2.16c10.49-1.11,5.73-3.51,18.08-2.76,4.78-4.6,10.26-7.13,16.25-9.08Z"/>
    <path class="cls-16" d="M518.03,277.9c-.66-.4-2.23-1.07-2.86-1.73l-8.11-8.51c-1.25-1.31.6-5.4,1.12-7.12l9.66-32.17-2.11-.61-1.5-1.59c-.17-.18-.57-.44-.79-.6-.88-1.27-2.66-3.64-3.89-4.44.18-.04,2.14.18,2.68.59l7.13,5.53-12.01,39.57,10.67,11.08Z"/>
    <path class="cls-27" d="M447.65,266.11l-12.76-5.97c.29-.17,1.04-1.58.53-1.77l-2.59-.97c1.72-5.42,6.2,2.49,16.21,1.3,1.02.78-.36,2.7-2.09,3.33l.71,4.07Z"/>
    <path class="cls-11" d="M504.63,290.76c-1.01,1.02-3.57,1.57-4.66,1.23-1.29-.4-3.22-2.06-3.19-3.37.06-2.4-.09-4.59-.43-7.12-.13-1.05,2.63-1.97,3.64-1.18,1.18.92,2.12,2.23,3.11,3.83,1.04,1.69,4.22,3.9,1.53,6.62Z"/>
    <path class="cls-1" d="M498.61,213.51l-3.34-.83c-.55-.71-1.72-1.74-2.72-2.28-8.85-4.85-16.92-9.16-26.34-13.3-4.21,3.29-10.27,13.06-13.35,12.62l13.11-14.06c11.6,5.59,23.04,10.5,32.65,17.85Z"/>
    <path class="cls-11" d="M522.98,310.01c.8,3.55-6.23,3.25-6.39.65.67-1.64,5.97-2.53,6.39-.65Z"/>
    <path class="cls-7" d="M452.85,209.72c-.87,2-2.27,5.18-3.97,6.7s-3.6,2.9-5.24,4.66c-2.04,2.18-4.28,4.35-6.45,6.26l-31.2-9.16-11.06-40.48c-15.4-1.9-30.06-2.41-44.9-1.61v-.75c10.7-1.6,21.68-1.32,32.98-.38l12.87,1.07,11.07,41.9,5.31.98c8.55,1.58,16.28,4.43,24.88,7.02l15.71-16.21Z"/>
    <path class="cls-11" d="M515.73,227.76c-.4-.12-1.52.06-1.49-.36.02-.3,0-1.02,0-1.22l1.5,1.59Z"/>
    <path class="cls-9" d="M320.17,219.7c2.24,2.03-3.84,9.77,1.26,13.54,2.55,1.88,4.68,3.52,4.47,7.39,2.45,1.92,5.56,3.94,8.47,5.32.26.65.66,2.2.81,2.98-7.83,3.68-25.01,4.82-33.85,9.72-5.04,1.82-10.88,3.32-15.67,5.77-3.83-4.82-8.79,2.4-12.13-3.61-2.02-3.65-4.03-7.53-6.29-10.93-13.69-6.57-7.01-2.66-15.31-13.24-4.17-5.32-4.91,1.52-9.49-8.72l3.75-5.34,10.99.14c2.51.03,4.86-1.81,7.02-2.64l7.3-2.81c1.96-.76,8.1.31,8.02-2.31,1.41.63,3.24,1.88,4.36,3.28l4.31,5.38c2.46,3.06,4.96,4.05,8.89,2.69,7.67-2.66,15.35-5,23.07-6.59Z"/>
    <path class="cls-16" d="M343.21,176.71c.39,0,1.18.07,1.57.12l1.57.22c.03,1.33.13,3.53.8,4.48.82,1.18,3.53,2.19,4.88,2.2h4.05c3.18,3.58-2.56,11.11,2.11,11.59l5.15.54c1.92,2.47,1.2,5.74-1.15,8.06,2.44,5.99,1.5,12.08.25,18.24l-2.29,11.31c-1.84-1.2-4.8-2.16-5.09-.96-.56,2.3-1.04,4.53-1.34,6.13l3.54,6.14,1.75,2.52-3.12.15-20.72,1.5c-.15-.78-.55-2.34-.81-2.98-2.92-1.38-6.03-3.4-8.47-5.32.21-3.88-1.92-5.51-4.47-7.39-5.1-3.76.98-11.51-1.26-13.54,1.2-.25,2.73-.69,4.35-1.12l10.36-40.4c2.26-.92,6.28-1.48,8.33-1.47Z"/>
    <path class="cls-15" d="M350.03,175.34v.75c-.99.05-2.66.6-3.68.97l-1.57-.22c-.05-.2-.17-.93-.37-.81-.31.18-1.22.71-1.2.69-2.05-.01-6.07.55-8.33,1.47l-10.36,40.4c-1.62.43-3.15.87-4.35,1.12-7.72,1.59-15.4,3.93-23.07,6.59-3.93,1.37-6.44.38-8.89-2.69l-4.31-5.38c-1.12-1.4-2.96-2.65-4.36-3.28-.94-1.63-2.23-3.65-3.69-5.09l-12.76-12.64c-9.7,4.81-18.78,9.28-27.88,14.56-3.59,2.08-6.82,3.98-10.25,5.6,11.79-8.93,25.61-15.66,39.11-21.79l12.67,13.33,16.25,17.2c10.5-3.91,20.31-6.34,30.56-8.59l10.36-41.15c5.63-1.45,10.95-.29,16.12-1.06Z"/>
    <path class="cls-7" d="M344.78,176.83c-.39-.05-1.17-.12-1.57-.12-.03.02.88-.51,1.2-.69.2-.12.32.61.37.81Z"/>
  </g>
</svg>